<svg width="199" height="50" viewBox="0 0 199 50" fill="none" xmlns="http://www.w3.org/2000/svg">
<g clip-path="url(#clip0_3661_14126)">
<mask id="mask0_3661_14126" style="mask-type:luminance" maskUnits="userSpaceOnUse" x="0" y="0" width="199" height="50">
<path d="M198.678 0H0V50H198.678V0Z" fill="white"/>
</mask>
<g mask="url(#mask0_3661_14126)">
<path d="M6.92031 32.718C7.15675 33.266 7.41337 33.8025 7.69307 34.3216C7.8978 34.3216 8.09964 34.3043 8.30436 34.3043C9.72585 34.3008 11.1339 34.5794 12.447 35.124C13.7601 35.6686 14.9522 36.4683 15.9541 37.4769L16.032 37.5606C16.2396 37.0011 16.4731 36.453 16.7268 35.9166C14.4295 33.807 11.4231 32.6384 8.30436 32.643C7.84201 32.6433 7.37999 32.6683 6.92031 32.718ZM5.74962 28.9686C5.86209 29.5166 6.00049 30.056 6.15908 30.5866C6.86941 30.4824 7.58643 30.4304 8.30436 30.4309C11.7932 30.4197 15.17 31.6622 17.8198 33.9323C18.1081 33.4564 18.4282 32.9949 18.7627 32.5478C15.8296 30.1056 12.1321 28.7714 8.3159 28.7782C7.46232 28.7799 6.61013 28.8473 5.76693 28.9802L5.74962 28.9686ZM8.92142 36.2945C9.41519 36.9946 9.95359 37.6622 10.5333 38.2931C12.2524 38.8642 13.6937 40.0616 14.5701 41.6475C14.694 41.7253 14.8181 41.8031 14.9449 41.8781C15.0481 41.1792 15.1877 40.486 15.363 39.8015C14.6041 38.7935 13.638 37.9598 12.5299 37.3568C11.4217 36.7538 10.1971 36.3955 8.93871 36.306L8.92142 36.2945ZM8.29859 25.0461C7.31031 25.0459 6.32338 25.1192 5.34595 25.2654C5.34595 25.8249 5.38055 26.3844 5.43533 26.9324C6.38256 26.7842 7.33987 26.71 8.29859 26.7103C12.6003 26.6983 16.7683 28.2048 20.0688 30.9644C20.4437 30.5578 20.8359 30.1626 21.2452 29.7877C17.6331 26.7253 13.0509 25.0459 8.3159 25.049L8.29859 25.0461Z" fill="#316DF0"/>
<path d="M27.4821 44.4797C28.0588 44.4076 28.6066 44.3153 29.1574 44.1913C29.2183 43.1961 29.5386 42.234 30.0866 41.4011C30.6345 40.5682 31.391 39.8932 32.2807 39.4434C33.1703 38.9937 34.1623 38.7848 35.1577 38.8375C36.1533 38.8902 37.1176 39.2027 37.9548 39.7439C38.3777 39.369 38.7862 38.9767 39.1802 38.5672C38.0843 37.773 36.791 37.2959 35.442 37.1881C34.0929 37.0803 32.7403 37.3459 31.5322 37.956C30.3241 38.566 29.3071 39.4968 28.5928 40.6465C27.8784 41.7962 27.4941 43.1203 27.4821 44.4739V44.4797ZM22.9522 44.5374C23.5 44.5922 24.0566 44.6211 24.616 44.6326C24.616 44.6066 24.616 44.5778 24.616 44.5518C24.6156 42.6483 25.1457 40.7824 26.1464 39.1633C27.147 37.5441 28.579 36.236 30.2815 35.3854C31.9839 34.5349 33.8897 34.1755 35.7849 34.3479C37.6802 34.5201 39.4899 35.2172 41.0112 36.3607C41.3342 35.9089 41.6369 35.4417 41.9195 34.959C40.147 33.6529 38.0471 32.864 35.8533 32.68C33.6594 32.4958 31.4575 32.9237 29.4922 33.9163C27.5269 34.9087 25.8753 36.4267 24.7207 38.3018C23.5661 40.1768 22.954 42.3352 22.9522 44.5374ZM34.858 24.478C29.9957 24.477 25.2983 26.2417 21.639 29.4441C17.9796 32.6467 15.607 37.0691 14.9622 41.8897C15.4726 42.1782 15.9945 42.4666 16.5337 42.7319C16.8426 39.6499 17.9231 36.6955 19.6755 34.1417C21.4279 31.588 23.7957 29.5173 26.5599 28.1211C29.3241 26.7248 32.3956 26.0481 35.4904 26.1534C38.5852 26.2587 41.6036 27.1426 44.2666 28.7235C44.3762 28.1467 44.4656 27.5699 44.5232 26.9612C41.5631 25.3296 38.2378 24.4752 34.858 24.478ZM18.7107 43.6058C19.247 43.7866 19.7949 43.9462 20.3542 44.0846C20.436 41.4738 21.2197 38.9333 22.6233 36.7307C24.0269 34.5279 25.9982 32.7445 28.3298 31.5682C30.6614 30.3917 33.267 29.8659 35.8721 30.0459C38.4773 30.2259 40.9857 31.1052 43.1334 32.5911C43.3525 32.0663 43.5449 31.5318 43.7101 30.9875C41.3349 29.4379 38.5944 28.5397 35.7629 28.3828C32.9314 28.2261 30.1084 28.8161 27.5767 30.094C25.045 31.3719 22.8934 33.2927 21.3374 35.6641C19.7814 38.0354 18.8755 40.7741 18.7107 43.6058Z" fill="#316DF0"/>
<path d="M24.9938 0C20.0504 0 15.2181 1.46623 11.1079 4.21326C6.99775 6.9603 3.79425 10.8648 1.90255 15.4329C0.0108288 20.0011 -0.484129 25.0278 0.480258 29.8773C1.44464 34.7268 3.82506 39.1814 7.32049 42.6776C10.8159 46.174 15.2694 48.555 20.1177 49.5196C24.966 50.4843 29.9913 49.9892 34.5584 48.097C39.1254 46.2048 43.0288 43.0005 45.7752 38.8893C48.5215 34.778 49.9874 29.9446 49.9874 25C49.9874 18.3696 47.3541 12.0107 42.667 7.32233C37.9797 2.63392 31.6225 0 24.9938 0ZM40.3856 40.3957C36.7379 44.0581 31.8995 46.2927 26.7469 46.6947L24.9938 49.7317L23.2405 46.6947C18.0874 46.2901 13.2478 44.0589 9.59303 40.4026C5.93823 36.7463 3.70823 31.9053 3.30443 26.7507L0.288355 25L3.31886 23.2493C3.72172 18.0964 5.94988 13.2564 9.60244 9.6003C13.2549 5.94418 18.0921 3.71195 23.2434 3.30526L24.9938 0.288417L26.744 3.31969C31.8956 3.72264 36.7343 5.95137 40.3895 9.60484C44.0447 13.2583 46.2763 18.0966 46.6829 23.2493L49.7135 25L46.6829 26.7507C46.2817 31.9056 44.0476 36.7464 40.3856 40.3957Z" fill="#316DF0"/>
<path d="M68.4185 10.8416H72.435L83.6805 36.9376H78.3663L75.9355 30.9673H64.6237L62.2651 36.9376H57.075L68.4185 10.8416ZM74.3151 26.9929L70.2984 16.3706L66.2068 26.9872L74.3151 26.9929Z" fill="#316DF0"/>
<path d="M109.761 35.0225C106.543 36.7415 102.945 37.601 98.9655 37.601C97.074 37.6229 95.1948 37.2933 93.4235 36.629C91.7964 36.0206 90.3144 35.0784 89.0729 33.8629C87.8315 32.6475 86.8579 31.1856 86.2149 29.5714C85.5094 27.8016 85.1585 25.9102 85.1827 24.0049C85.1574 22.0566 85.5079 20.1215 86.2149 18.3059C86.8568 16.6691 87.8297 15.1826 89.0725 13.9392C90.3136 12.719 91.7955 11.7711 93.4235 11.156C95.1949 10.488 97.0755 10.1564 98.9684 10.1783C100.86 10.1664 102.744 10.4089 104.571 10.8993C106.309 11.3763 107.912 12.2534 109.251 13.4605L105.822 16.9243C104.951 16.0928 103.916 15.4523 102.783 15.0439C101.574 14.5992 100.294 14.3744 99.0059 14.3805C97.7466 14.3619 96.4975 14.6066 95.3382 15.0987C94.2714 15.561 93.3121 16.2396 92.521 17.0916C91.7263 17.9523 91.1063 18.9593 90.6958 20.0565C90.2591 21.2239 90.0402 22.4616 90.0499 23.708C90.0365 25.025 90.2551 26.3343 90.6958 27.5756C91.0959 28.7063 91.7162 29.7464 92.521 30.6357C93.3107 31.4959 94.2698 32.1833 95.3382 32.6546C96.4938 33.1602 97.7446 33.412 99.0059 33.3929C100.125 33.398 101.243 33.2868 102.339 33.0613C103.315 32.8653 104.254 32.5168 105.122 32.0287V25.8826H99.7672V21.6803H109.753L109.761 35.0225Z" fill="#316DF0"/>
<path d="M115.142 10.8416H119.787V36.9376H115.142V10.8416Z" fill="#316DF0"/>
<path d="M143.405 16.9618C142.444 15.9293 141.517 15.2409 140.623 14.8967C139.76 14.5595 138.841 14.3845 137.915 14.3805C136.656 14.3623 135.406 14.6068 134.248 15.0987C133.18 15.5609 132.221 16.2395 131.43 17.0916C130.636 17.9523 130.016 18.9592 129.605 20.0565C129.169 21.224 128.951 22.4617 128.962 23.7079C128.947 25.0249 129.166 26.3341 129.605 27.5756C130.005 28.7062 130.625 29.7464 131.43 30.6357C132.22 31.4959 133.179 32.1833 134.248 32.6546C135.403 33.16 136.654 33.4118 137.915 33.3929C138.988 33.3923 140.046 33.1363 141 32.6459C142.095 32.0565 143.044 31.2321 143.782 30.2318L147.615 32.9574C146.522 34.5085 145.026 35.732 143.29 36.4963C141.581 37.2368 139.734 37.613 137.871 37.601C135.981 37.6225 134.103 37.2929 132.333 36.629C130.706 36.0214 129.222 35.0794 127.981 33.8638C126.739 32.6483 125.767 31.1861 125.124 29.5714C124.417 27.8019 124.066 25.9103 124.091 24.0049C124.071 22.0553 124.427 20.1199 125.142 18.3059C125.781 16.6687 126.754 15.182 127.996 13.9392C129.237 12.7199 130.718 11.7721 132.344 11.156C134.115 10.4882 135.996 10.1566 137.889 10.1782C139.575 10.1626 141.248 10.4822 142.808 11.1185C144.444 11.8393 145.889 12.9315 147.03 14.3084L143.405 16.9618Z" fill="#316DF0"/>
<path d="M161.389 10.8416H165.406L176.651 36.9376H171.346L168.915 30.9673H157.591L155.233 36.9376H150.043L161.389 10.8416ZM167.282 26.9929L163.267 16.3706L159.166 26.9872L167.282 26.9929Z" fill="#316DF0"/>
<path d="M180.29 10.8416H189.061C190.281 10.8388 191.497 10.9625 192.692 11.2108C193.785 11.4286 194.828 11.8471 195.768 12.4452C196.657 13.0302 197.386 13.8284 197.888 14.7669C198.447 15.8933 198.715 17.1415 198.669 18.3981C198.669 20.0459 198.387 21.3727 197.824 22.3782C197.29 23.3529 196.499 24.1627 195.537 24.7202C194.506 25.2992 193.376 25.6807 192.204 25.8451C190.893 26.0427 189.568 26.1391 188.243 26.1335H184.927V36.9319H180.29V10.8416ZM187.735 22.1591C188.398 22.1591 189.084 22.1332 189.799 22.0841C190.476 22.0394 191.141 21.8865 191.769 21.6313C192.35 21.4014 192.859 21.02 193.243 20.5267C193.659 19.9215 193.862 19.195 193.82 18.4615C193.854 17.7784 193.674 17.1013 193.303 16.5263C192.963 16.051 192.506 15.6707 191.977 15.4216C191.406 15.1552 190.796 14.9865 190.168 14.9227C189.534 14.8502 188.894 14.8136 188.255 14.8131H184.939V22.1591H187.735Z" fill="#316DF0"/>
</g>
</g>
<defs>
<clipPath id="clip0_3661_14126">
<rect width="198.678" height="50" fill="white"/>
</clipPath>
</defs>
</svg>
