<svg width="216" height="50" viewBox="0 0 216 50" fill="none" xmlns="http://www.w3.org/2000/svg">
<path d="M102.216 25V50H102.873H103.531V25V0H102.873H102.216V25Z" fill="black"/>
<path d="M49.0083 14.4732V21.7101H53.1202H57.232V18.5851V15.4601H70.5873H83.9097L84.436 16.6772L84.9294 17.9272L84.7649 19.8351C84.6662 20.8877 84.4031 21.9403 84.2057 22.2035L83.811 22.6969L48.8768 22.7627L13.9754 22.8614L13.8768 26.9074L13.7781 30.9206L49.8965 30.8548L86.0149 30.7561L87.561 29.868C89.3702 28.7824 90.8176 27.039 92.0018 24.4403L92.9228 22.5324L92.8899 19.0456V15.5588L91.8044 13.3548C90.5215 10.7561 88.9097 9.07849 86.6728 8.02586L85.0281 7.23638H67.0347H49.0083V14.4732Z" fill="black"/>
<path d="M112.414 36.0198V44.4409L114.322 44.3422L116.197 44.2435L116.295 41.5132L116.394 38.8159H122.94H129.486L130.309 38.454C130.769 38.2238 131.559 37.4672 132.052 36.7435L132.973 35.4277V33.2238V31.0198L132.052 29.704C131.559 28.9803 130.769 28.2238 130.309 27.9935L129.486 27.6316H120.966H112.414V36.0198ZM129.026 33.2238V34.704L122.71 34.8027L116.361 34.8685V33.2238V31.579L122.71 31.6448L129.026 31.7435V33.2238Z" fill="black"/>
<path d="M137.907 28.0915C135.407 29.2099 134.782 30.756 134.782 35.9862V40.0652L135.275 41.2494C135.571 41.9402 136.328 42.7955 137.15 43.3218L138.499 44.2428L144.288 44.3415L150.078 44.4731L151.328 44.0783C151.986 43.881 153.071 43.2889 153.696 42.7297L154.815 41.7428L155.209 39.9994C155.407 39.0126 155.538 36.7757 155.473 34.8349L155.341 31.4139L154.551 30.1639C154.124 29.4731 153.236 28.6507 152.512 28.2889L151.262 27.631H145.078L138.894 27.6639L137.907 28.0915ZM151.163 31.9731L151.558 32.3678V36.0849V39.7691L150.933 40.131C150.571 40.3283 147.973 40.4599 144.913 40.4599H139.519L139.124 40.0652L138.729 39.6705V35.8547C138.729 31.1507 138.071 31.5783 144.979 31.5783H150.769L151.163 31.9731Z" fill="black"/>
<path d="M159.88 28.2238C159.288 28.5198 158.433 29.3093 157.972 29.9343L157.15 31.0527V35.8553V40.6909L157.906 41.8093C158.301 42.4343 159.288 43.2566 160.11 43.6843L161.591 44.4409L167.676 44.3422L173.762 44.2435L174.88 43.5856C175.505 43.2238 176.295 42.5001 176.689 42.0066L177.38 41.0856V35.8553V30.6251L176.393 29.6053C175.867 29.0132 175.012 28.3553 174.518 28.0922L173.63 27.6316H167.281L160.933 27.6645L159.88 28.2238ZM173.531 35.658L173.63 39.5395L173.235 40.0001L172.874 40.4606H167.314H161.788L161.295 39.9343L160.768 39.4409V35.8882V32.3685L161.163 31.9738L161.558 31.579L167.512 31.6448L173.433 31.7435L173.531 35.658Z" fill="black"/>
<path d="M179.188 36.0193V44.4074H187.741H196.293V42.4337V40.46H189.715H183.136V34.0456V27.6311H181.162H179.188V36.0193Z" fill="black"/>
<path d="M49.0093 37.3358V42.4344H53.1211H57.233V37.3358V32.2371H53.1211H49.0093V37.3358Z" fill="black"/>
<path d="M114.486 6.24983C113.894 6.57878 113.171 7.36825 112.842 7.96036L112.282 9.04589L112.151 15.5261L112.019 22.0393H114.026H116.032V19.4077V16.7761H121.131H126.23V14.8025V12.8288H121.098H116L116.098 11.2498L116.197 9.70378L122.25 9.6051L128.335 9.53931L128.598 9.93404C128.73 10.1643 128.861 12.9933 128.861 16.184V22.0393H130.703H132.513L132.414 15.1972L132.315 8.3551L131.559 7.40115C131.131 6.84194 130.473 6.24983 130.078 6.01957L129.355 5.62483L122.447 5.59194H115.539L114.486 6.24983Z" fill="#FF5A00"/>
<path d="M134.125 13.8156V22.0393H142.513H150.901V20.2301V18.4209H144.486H138.072V12.0064V5.59194H136.098H134.125V13.8156Z" fill="#FF5A00"/>
<path d="M152.544 13.8156V22.0393H154.452H156.327L156.229 19.4406L156.13 16.809L163.202 16.7104L170.275 16.6117L171.459 15.4604C174.058 12.9604 173.762 7.99325 170.9 6.24983L169.814 5.59194H161.196H152.544V13.8156ZM169.255 11.0854L169.156 12.6643H162.742H156.327L156.229 11.0854L156.13 9.53931H162.742H169.354L169.255 11.0854Z" fill="#FF5A00"/>
<path d="M174.915 13.8156V22.0393H176.888H178.862V18.9143V15.7893H183.961H189.06V18.9143V22.0393H191.033H193.007V13.8156V5.59194H191.033H189.06V8.71694V11.8419H183.961H178.862V8.71694V5.59194H176.888H174.915V13.8156Z" fill="#FF5A00"/>
<path d="M196.625 6.4801C196.033 6.97352 195.342 7.86167 195.112 8.45378L194.652 9.50641V15.7893V22.0393H196.625H198.599V15.7893V9.53931H204.849H211.099V11.184V12.8288H206H200.902V14.8025V16.7761H206H211.099V19.4077V22.0393H213.073H215.046V15.7893V9.50641L214.586 8.45378C214.356 7.86167 213.731 7.03931 213.27 6.57878L212.349 5.75641L205.046 5.65773L197.711 5.55904L196.625 6.4801Z" fill="#FF5A00"/>
<path d="M7.89083 7.53313C5.32504 8.3555 3.0882 10.3621 1.70662 13.1252L0.818462 14.9673L0.719778 28.6844L0.621094 42.4344H4.76583H8.87767V29.5068V16.5463L9.46978 16.02L10.0948 15.4608H22.4632H34.8316L35.325 15.9871L35.8514 16.4805V19.1121V21.7108H39.9961H44.1408L44.0093 18.3226L43.9106 14.9673L43.0553 13.1581C42.0356 11.02 40.3908 9.21076 38.4171 8.15813L37.0027 7.40155L22.8579 7.33576C15.0948 7.30287 8.35136 7.40155 7.89083 7.53313Z" fill="#FF5A00"/>
<path d="M13.9431 26.9733C13.9431 29.2431 13.976 30.1641 14.0418 29.0128C14.1076 27.8944 14.1076 26.0523 14.0418 24.901C13.976 23.7825 13.9431 24.7036 13.9431 26.9733Z" fill="black"/>
<path d="M35.8523 37.3358V42.4344H39.9641H44.076V37.3358V32.2371H39.9641H35.8523V37.3358Z" fill="#FF5A00"/>
<path d="M179.403 35.8557C179.403 37.7636 179.436 38.5202 179.502 37.5662C179.568 36.6452 179.568 35.0662 179.502 34.1123C179.436 33.1912 179.403 33.9478 179.403 35.8557Z" fill="black"/>
</svg>
