<svg width="125" height="50" viewBox="0 0 125 50" fill="none" xmlns="http://www.w3.org/2000/svg">
<g clip-path="url(#clip0_3661_14156)">
<path d="M119.439 0.048584C119.911 0.245013 120.321 0.564209 120.762 0.819417C121.314 1.16614 121.862 1.51808 122.411 1.86852C122.414 11.6364 122.523 21.405 122.416 31.1728C122.382 32.2882 122.545 33.4392 123.086 34.4288C123.33 34.8849 123.661 35.2896 124.044 35.6371C124.045 35.928 124.045 36.2197 124.042 36.5114C123.144 37.1074 122.272 37.7398 121.394 38.3641C120.597 37.0047 119.876 35.6014 119.209 34.1743C118.213 35.117 117.225 36.0843 116.079 36.8462C115.126 37.4928 114.063 37.9771 112.943 38.2465C110.107 38.937 107.025 38.405 104.526 36.9176C102.595 35.774 101.012 33.9898 100.277 31.8536C99.8155 30.7138 99.5313 29.501 99.4613 28.2725C99.2827 25.3388 100.207 22.3767 101.913 19.995C103.587 17.6394 106.112 15.8395 108.97 15.277C110.372 14.9377 111.843 14.9035 113.26 15.1699C115.426 15.5687 117.443 16.5917 119.168 17.9452C119.19 11.9786 119.338 6.01361 119.439 0.048584ZM110.235 18.2889C109.045 18.4407 107.931 18.9444 106.92 19.5687C104.631 21.0478 103.086 23.6193 102.856 26.335C102.744 27.5828 102.958 28.8484 103.408 30.0136C104.342 32.3574 106.5 34.2056 108.998 34.649C109.688 34.78 110.393 34.7495 111.091 34.7376C112.456 34.6721 113.789 34.2063 114.929 33.4593C117.095 32.0411 118.615 29.6624 118.955 27.0917C119.139 25.7316 118.923 24.3388 118.466 23.0523C117.234 19.8365 113.617 17.8269 110.235 18.2889Z" fill="black"/>
<path d="M0.321971 0.106262C1.30783 0.713405 2.2937 1.31906 3.27956 1.92695C3.31527 7.47233 3.40605 13.017 3.39117 18.5624C5.17465 16.9619 7.32123 15.7253 9.66647 15.1799C11.2959 14.7975 13.0162 14.7863 14.6427 15.1963C16.9157 15.6695 18.976 16.9813 20.4611 18.7536C22.0035 20.5802 22.9752 22.8994 23.1114 25.2923C23.1992 27.2394 22.8808 29.2171 22.0683 30.9961C20.9805 33.4217 19.1374 35.5006 16.8636 36.8771C14.6352 38.2357 11.9336 38.8749 9.34206 38.4485C7.06602 38.0847 4.95888 36.9061 3.35694 35.264C1.69176 33.5653 0.52956 31.3719 0.0995005 29.0296C0.0689946 28.854 0.0622981 28.6747 0.0630422 28.4969C0.0712267 26.5869 0.0459291 24.6769 0.0987565 22.7677C0.253518 15.2141 0.208876 7.65909 0.321971 0.106262ZM11.1308 18.2089C10.5169 18.2945 9.90456 18.4113 9.31974 18.6197C7.22301 19.3466 5.46185 20.9299 4.42911 22.8853C3.69399 24.258 3.36364 25.8317 3.4187 27.3845C3.58016 30.4076 5.63894 33.2737 8.50277 34.2982C9.42242 34.6397 10.4127 34.7045 11.3845 34.7082C13.3562 34.6702 15.255 33.7982 16.6873 32.4649C18.3309 30.9433 19.4395 28.8146 19.6025 26.5691C19.6895 25.4835 19.5035 24.3927 19.1858 23.357C18.1122 20.0705 14.5824 17.7454 11.1308 18.2089Z" fill="black"/>
<path d="M77.4087 21.568C82.0628 17.9393 87.7741 15.7138 93.6416 15.1431C93.5977 16.0762 93.5494 17.0085 93.507 17.9415C90.6803 18.4936 87.8767 19.2466 85.2495 20.4422C82.5992 21.6424 80.1223 23.3269 78.2674 25.591C78.1528 25.7443 77.9846 25.8768 77.9578 26.0769C77.248 30.1268 77.4311 34.254 77.2354 38.3433C76.2391 38.309 75.2428 38.2726 74.2473 38.2384C74.3343 32.1201 74.1491 26.0032 74.0933 19.8864C75.225 19.0977 76.3581 18.3105 77.4943 17.5293C77.469 18.8753 77.4378 20.2213 77.4087 21.568Z" fill="black"/>
<path d="M27.5196 19.3323C28.4258 18.8821 29.3313 18.432 30.2376 17.9818C35.3685 21.0919 40.5188 24.1701 45.6795 27.2318C50.4355 24.3032 55.2517 21.4736 60.0344 18.589C60.4169 18.2891 60.905 18.1128 61.3953 18.1872C62.3075 18.3084 63.0791 18.8516 63.9176 19.1879C58.6855 23.3189 52.8685 26.6172 47.4809 30.5302C47.3574 36.176 47.3551 41.8263 47.0627 47.4677C47.0404 47.8285 47.0843 48.2132 46.9042 48.5436C46.6341 49.0748 46.1594 49.458 45.8261 49.9461C45.2777 49.4736 44.7368 48.993 44.1937 48.5153C44.0999 42.9573 43.8693 37.4029 43.7822 31.8449C43.7904 31.5056 43.8678 31.1507 43.7212 30.8285C43.4489 30.1708 42.8023 29.7973 42.2472 29.4052C37.2949 26.1276 32.3819 22.7913 27.4452 19.4907C27.3008 19.4439 27.4623 19.3531 27.5196 19.3323Z" fill="black"/>
<path d="M49.5031 31.4162C54.3699 27.9475 59.3692 24.6699 64.2471 21.2168C63.9971 26.1134 63.6549 31.004 63.4168 35.9006C58.6229 39.6253 53.8811 43.4169 49.0708 47.1201C49.2263 41.8857 49.3982 36.6521 49.5031 31.4162Z" fill="#65D6C3"/>
</g>
<defs>
<clipPath id="clip0_3661_14156">
<rect width="124.107" height="50" fill="white"/>
</clipPath>
</defs>
</svg>
