<svg width="308" height="50" viewBox="0 0 308 50" fill="none" xmlns="http://www.w3.org/2000/svg">
<path d="M292.445 14.281V35.7194H307.849V31.0295H298.263V27.3451H303.49V22.6552H298.263V18.9708H307.891V14.281H292.445Z" fill="#231F20"/>
<path d="M290.315 14.2657V14.2647H284.472V25.5318H284.304L276.655 14.2647H271.695V35.7896H277.537V24.4809H277.664L285.439 35.7896H290.315V14.2657Z" fill="#231F20"/>
<path d="M259.244 30.8359C256.036 30.8359 253.437 28.2345 253.437 25.0274C253.437 21.8193 256.036 19.219 259.244 19.219C262.45 19.219 265.05 21.8193 265.05 25.0274C265.05 28.2345 262.45 30.8359 259.244 30.8359ZM259.244 13.823C253.057 13.823 248.042 18.8395 248.042 25.0274C248.042 31.2159 253.057 36.2318 259.244 36.2318C265.429 36.2318 270.445 31.2159 270.445 25.0274C270.445 18.8395 265.429 13.823 259.244 13.823Z" fill="#231F20"/>
<path d="M223.305 14.281V35.7194H238.71V31.0295H229.123V27.3451H234.351V22.6552H229.123V18.9708H238.751V14.281H223.305Z" fill="#231F20"/>
<path d="M211.755 30.8359C208.548 30.8359 205.949 28.2346 205.949 25.0275C205.949 21.8194 208.548 19.219 211.755 19.219C214.174 19.219 216.247 20.7003 217.12 22.8051L222.104 20.7398C220.17 16.0692 215.304 13.2588 210.293 13.9189C204.201 14.7213 199.848 20.3959 200.65 26.49C201.452 32.584 207.125 36.9384 213.218 36.1365C217.179 35.6142 220.574 33.0084 222.104 29.3151L217.12 27.2499C216.247 29.3547 214.174 30.8359 211.755 30.8359Z" fill="#231F20"/>
<path d="M188.277 18.9287H190.329C191.012 18.9287 191.597 19.0211 192.081 19.2063C192.566 19.3911 192.939 19.6772 193.201 20.0646C193.463 20.4519 193.594 20.9524 193.594 21.5666C193.594 22.1738 193.463 22.6654 193.201 23.0429C192.939 23.4194 192.566 23.6936 192.081 23.8641C191.597 24.0355 191.012 24.121 190.329 24.121H188.277V18.9287ZM194.054 35.7187H200.375L196.021 27.7244C197.132 27.1908 198.007 26.4338 198.643 25.4501C199.323 24.3967 199.663 23.1022 199.663 21.5666C199.663 20.0453 199.332 18.7404 198.669 17.6519C198.006 16.563 197.078 15.729 195.885 15.1499C194.692 14.5708 193.301 14.2808 191.71 14.2808H182.459V35.7187H188.277V28.6429H190.291L194.054 35.7187Z" fill="#231F20"/>
<path d="M164.862 14.281V35.7194H180.266V31.0295H170.68V27.3451H175.907V22.6552H170.68V18.9708H180.308V14.281H164.862Z" fill="#231F20"/>
<path d="M138.139 14.281H145.381L150.362 26.4241H150.613L155.594 14.281H162.836V35.7194H157.143V23.3252H156.976L152.204 35.5519H148.771L143.999 23.2417H143.832V35.7194H138.139V14.281Z" fill="#231F20"/>
<path d="M111.416 14.281H118.658L123.639 26.4241H123.89L128.871 14.281H136.113V35.7194H130.42V23.3252H130.253L125.481 35.5519H122.048L117.276 23.2417H117.109V35.7194H111.416V14.281Z" fill="#231F20"/>
<path d="M98.9644 30.8359C95.7577 30.8359 93.1576 28.2345 93.1576 25.0274C93.1576 21.8193 95.7577 19.219 98.9644 19.219C102.172 19.219 104.771 21.8193 104.771 25.0274C104.771 28.2345 102.172 30.8359 98.9644 30.8359ZM98.9644 13.823C92.7788 13.823 87.7633 18.8395 87.7633 25.0274C87.7633 31.2159 92.7788 36.2318 98.9644 36.2318C105.15 36.2318 110.166 31.2159 110.166 25.0274C110.166 18.8395 105.15 13.823 98.9644 13.823Z" fill="#231F20"/>
<path d="M77.0377 30.9112C73.831 30.9112 71.2309 28.3103 71.2309 25.1027C71.2309 21.8946 73.831 19.2943 77.0377 19.2943C79.4081 19.2943 81.4431 20.7167 82.3456 22.7534L87.2049 20.74C85.2712 16.0689 80.4049 13.259 75.3948 13.9186C69.3026 14.721 64.949 20.3961 65.7512 26.4901C66.5533 32.5842 72.2267 36.9381 78.319 36.1362C82.2814 35.6144 85.6757 33.0091 87.2049 29.3153L82.4019 27.3251C81.5296 29.4299 79.457 30.9112 77.0377 30.9112Z" fill="#231F20"/>
<path d="M49.7175 14.281V35.7194H65.122V31.0295H55.5361V27.3451H60.763V22.6552H55.5361V18.9708H65.1635V14.281H49.7175Z" fill="#231F20"/>
<path d="M28.563 28.5715V14.2855H14.2817V21.4285H21.4221V28.5715H14.2817V35.7145H35.7039V28.5715H28.563Z" fill="#231F20"/>
<path d="M35.7039 7.143V0H0V50H35.7039V42.857H7.14089V7.143H35.7039Z" fill="#231F20"/>
</svg>
