<svg width="297" height="50" viewBox="0 0 297 50" fill="none" xmlns="http://www.w3.org/2000/svg">
<path d="M283.729 0.0253906C281.827 0.0253906 280.276 1.57693 280.276 3.47882V13.2886C280.276 15.1905 281.827 16.742 283.729 16.742H293.539C295.441 16.742 296.992 15.1905 296.992 13.2886V3.47882C296.992 1.57693 295.441 0.0253906 293.539 0.0253906H283.729Z" fill="#00FFAD"/>
<path d="M64.4859 12.2872L58.0294 30.9808C57.554 32.3572 57.0034 34.0589 56.603 35.5103L56.4028 36.161L56.2276 35.5103C55.9774 34.6094 55.6521 33.5083 55.2517 32.2821V32.2321C55.1766 31.9818 55.1015 31.7065 55.0014 31.4563C54.9514 31.2811 54.9013 31.131 54.8513 30.9558L48.3949 12.2622H37.509L51.6231 49.0738H61.3077L75.4468 12.2622H64.4859V12.2872Z" fill="#21201F"/>
<path d="M132.178 11.4865C127.248 11.4865 123.194 13.0881 120.417 16.1161C117.839 18.9439 116.488 22.8478 116.488 27.4023V49.0489H126.873V28.4784C126.873 23.4734 129.2 21.2462 134.406 21.2462C134.881 21.2462 135.882 21.2462 137.058 21.3213H137.308V12.012H137.083C135.407 11.6367 133.98 11.4865 132.178 11.4865Z" fill="#21201F"/>
<path d="M156.352 26.4764L156.327 26.5265L156.352 26.4764C152.899 25.4504 150.171 24.6496 150.171 22.6226C150.171 20.8708 151.798 19.6446 154.125 19.6446C156.553 19.6446 158.229 20.9209 158.605 23.048V23.2732H168.364V22.998C167.839 15.8909 162.458 11.4865 154.35 11.4865H154.125C146.142 11.4865 140.562 16.0661 140.562 22.6226C140.562 31.3563 147.469 33.3583 153.024 34.9849C156.477 35.9859 159.23 36.7867 159.23 38.9138C159.23 40.6155 157.504 41.7416 154.976 41.7416C152.674 41.7416 150.021 40.7156 149.521 37.8627V37.6375H139.636V37.9128C140.186 44.9948 146.518 49.9247 154.976 49.9247C163.009 49.9247 169.09 45.195 169.09 38.9138C169.09 30.2552 161.733 28.078 156.352 26.4764Z" fill="#21201F"/>
<path d="M187.484 0H177.098V12.2872H170.492V20.5955H177.098V35.185C177.098 44.294 182.379 49.7244 191.187 49.7244C193.014 49.7244 194.741 49.4742 196.993 48.8736H197.218V40.4402H196.943C195.467 40.4652 194.29 40.4652 193.84 40.4652C189.26 40.4652 187.459 38.6134 187.459 33.8336V20.5704H198.119V12.2872H187.459L187.484 0Z" fill="#21201F"/>
<path d="M275.221 12.2876H262.683L255.927 24.3746L249.17 12.3877L249.095 12.2876H236.633L248.895 30.0302L236.633 48.949H249.12L255.927 36.1113L262.658 48.949H275.221L262.959 30.0302L275.221 12.2876Z" fill="#21201F"/>
<path d="M39.0356 28.6037C38.435 23.6238 36.0326 18.9942 32.4791 15.866C29.301 13.0132 25.1969 11.5618 20.292 11.5618C16.5633 11.5618 13.1349 12.4376 10.0819 14.1393C7.00379 15.866 4.52633 18.2184 2.74956 21.0962C0.947771 23.9991 0.046875 27.2774 0.046875 30.8059C0.046875 34.4846 0.847671 37.8379 2.42424 40.7408C3.97578 43.5936 6.30309 45.8959 9.30608 47.5475C11.7085 48.8739 14.6114 49.6747 17.9397 49.9249C18.5653 49.975 19.1409 50 19.7164 50H20.1669C20.7174 50 21.318 49.975 21.9186 49.9249C25.2469 49.6747 28.1498 48.8739 30.5522 47.5475C33.5302 45.8959 35.8324 43.5936 37.409 40.7408C37.6843 40.2153 37.8845 39.7898 38.0847 39.3394L38.2098 39.0891L28.9506 35.7608L28.8505 35.961C28.0247 37.5126 26.7234 38.914 24.9466 40.0901L24.9216 40.1152C23.4702 40.941 21.7935 41.3914 19.9667 41.4415C18.0648 41.3914 16.4131 40.966 14.9117 40.1152C14.0108 39.6147 13.1599 38.914 12.3841 38.0631L12.1839 37.8379L38.9105 28.879L39.0356 28.8289V28.7038V28.6037ZM10.0318 29.93C10.1069 28.0782 10.5073 26.4516 11.233 25.1002C12.0088 23.5987 13.1349 22.3725 14.5113 21.4966C15.9126 20.6458 17.4892 20.1953 19.2159 20.1953H19.316C23.8205 20.2454 26.2479 23.1233 27.0988 24.3745L10.0318 29.93Z" fill="#21201F"/>
<path d="M112.609 28.6037C112.008 23.6238 109.606 18.9942 106.052 15.866C102.874 13.0132 98.7701 11.5618 93.8652 11.5618C90.1365 11.5618 86.7081 12.4376 83.6551 14.1393C80.577 15.866 78.0996 18.2184 76.3228 21.0962C74.521 23.9991 73.6201 27.2774 73.6201 30.8059C73.6201 34.4846 74.4209 37.8379 75.9975 40.7408C77.549 43.5936 79.8763 45.8959 82.8793 47.5475C85.2817 48.8739 88.1846 49.6747 91.5129 49.9249C92.1385 49.975 92.7141 50 93.2897 50H93.7401C94.2907 50 94.8913 49.975 95.4918 49.9249C98.8202 49.6747 101.723 48.8739 104.125 47.5475C107.103 45.8959 109.406 43.5936 110.982 40.7408C111.258 40.2153 111.458 39.7898 111.658 39.3394L111.783 39.0891L102.524 35.7608L102.424 35.961C101.598 37.5126 100.297 38.914 98.5199 40.0901L98.4948 40.1152C97.0434 40.941 95.3667 41.3914 93.5399 41.4415C91.638 41.3914 89.9864 40.966 88.4849 40.1152C87.584 39.6147 86.7331 38.914 85.9574 38.0631L85.7572 37.8379L112.484 28.879L112.609 28.8289V28.7038V28.6037ZM83.605 29.93C83.6801 28.0782 84.0805 26.4516 84.8062 25.1002C85.582 23.5987 86.7081 22.3725 88.0845 21.4966C89.4859 20.6458 91.0625 20.1953 92.7892 20.1953H92.8893C97.3937 20.2454 99.8212 23.1233 100.672 24.3745L83.605 29.93Z" fill="#21201F"/>
<path d="M233.304 17.0169C229.676 13.4634 224.646 11.5115 219.115 11.5115C213.56 11.5115 208.53 13.4634 204.926 17.0169C201.323 20.5455 199.346 25.4003 199.346 30.6805C199.346 35.9858 201.323 40.8406 204.926 44.3691C208.555 47.9477 213.61 49.9247 219.115 49.9247C224.646 49.9247 229.676 47.9477 233.304 44.3691C236.908 40.8156 238.885 35.9608 238.885 30.6805C238.86 25.3753 236.883 20.5204 233.304 17.0169ZM225.497 37.8877C223.845 39.5393 221.643 40.4152 219.09 40.4152C213.735 40.4152 209.981 36.4112 209.981 30.6805C209.981 25.0499 213.81 20.9459 219.09 20.9459C224.371 20.9459 228.199 25.0499 228.199 30.6805C228.199 33.5834 227.248 36.136 225.497 37.8877Z" fill="#21201F"/>
</svg>
