<svg width="208" height="50" viewBox="0 0 208 50" fill="none" xmlns="http://www.w3.org/2000/svg">
<path d="M73.9728 9.06399C73.3874 9.05227 72.8058 9.16051 72.2638 9.38204C71.7219 9.60357 71.231 9.93371 70.8214 10.3521C70.4079 10.7511 70.0806 11.2307 69.8597 11.7612C69.6388 12.2917 69.5291 12.8619 69.5372 13.4365V14.7561H79.464V22.6503H69.5372L69.4663 49.4565H60.5244V13.8383C60.5244 9.72577 61.756 6.54028 64.2193 4.2818C66.6826 2.02333 69.9364 0.882278 73.9807 0.858643H79.4679V9.06399H73.9728ZM87.7048 19.4989C89.3601 17.824 91.3313 16.4942 93.5042 15.5867C95.6771 14.6791 98.0086 14.2118 100.363 14.2118C102.718 14.2118 105.05 14.6791 107.223 15.5867C109.396 16.4942 111.367 17.824 113.022 19.4989C114.712 21.1297 116.051 23.0896 116.955 25.2576C117.858 27.4255 118.308 29.7557 118.277 32.1044C118.306 34.4584 117.855 36.7937 116.951 38.9677C116.048 41.1417 114.711 43.1089 113.022 44.7492C111.361 46.4137 109.388 47.7342 107.216 48.6352C105.044 49.5362 102.715 50 100.363 50C98.0118 50 95.6833 49.5362 93.5112 48.6352C91.3391 47.7342 89.366 46.4137 87.7048 44.7492C86.0245 43.1043 84.6955 41.1355 83.7984 38.962C82.9012 36.7885 82.4545 34.4555 82.4854 32.1044C82.4528 29.7588 82.8988 27.4312 83.7962 25.2638C84.6936 23.0965 86.0236 21.1349 87.7048 19.4989ZM106.613 25.9395C104.957 24.2898 102.715 23.3636 100.377 23.3636C98.0397 23.3636 95.7975 24.2898 94.1415 25.9395C93.3279 26.758 92.6874 27.732 92.2584 28.8033C91.8293 29.8747 91.6203 31.0214 91.644 32.1753C91.6216 33.3275 91.8356 34.4721 92.2725 35.5384C92.7095 36.6048 93.3603 37.5704 94.1848 38.3756C94.9983 39.1988 95.9704 39.8484 97.0422 40.2852C98.114 40.7219 99.2633 40.9366 100.421 40.9163C101.577 40.9352 102.725 40.713 103.791 40.2641C104.857 39.8151 105.818 39.1492 106.613 38.3086C107.44 37.5026 108.095 36.5371 108.537 35.4707C108.98 34.4042 109.202 33.259 109.189 32.1044C109.204 30.9552 108.983 29.8152 108.54 28.7548C108.097 27.6945 107.441 26.7363 106.613 25.9395ZM143.216 14.7522V23.3633H138.914C137.343 23.3232 135.82 23.9083 134.68 24.9902C134.118 25.5052 133.673 26.1345 133.375 26.8356C133.077 27.5368 132.932 28.2937 132.95 29.0554V49.4565H123.89V14.7522H131.107V17.0566C132.961 15.5203 135.368 14.7522 138.327 14.7522H143.216ZM167.615 40.3767V49.4565H161.277C157.165 49.4565 153.933 48.305 151.583 46.0018C149.232 43.6987 148.069 40.3438 148.093 35.9372V3.70668H157.275V14.7364H167.883V22.6503H157.275V36.0042C157.242 37.1581 157.667 38.2784 158.457 39.1201C158.85 39.5308 159.325 39.8548 159.85 40.0712C160.376 40.2876 160.941 40.3917 161.51 40.3767H167.615ZM176.498 19.4989C178.154 17.824 180.125 16.4942 182.298 15.5867C184.471 14.6791 186.802 14.2118 189.157 14.2118C191.512 14.2118 193.843 14.6791 196.016 15.5867C198.189 16.4942 200.16 17.824 201.815 19.4989C203.505 21.1299 204.843 23.0899 205.746 25.2579C206.649 27.4259 207.099 29.756 207.066 32.1044C207.096 34.4581 206.645 36.7932 205.742 38.9672C204.84 41.1412 203.504 43.1085 201.815 44.7492C200.154 46.4137 198.181 47.7342 196.009 48.6352C193.837 49.5362 191.508 50 189.157 50C186.805 50 184.477 49.5362 182.305 48.6352C180.132 47.7342 178.159 46.4137 176.498 44.7492C174.817 43.1049 173.488 41.1362 172.591 38.9625C171.693 36.7889 171.247 34.4557 171.279 32.1044C171.245 29.7589 171.69 27.4312 172.587 25.2638C173.483 23.0963 174.813 21.1346 176.494 19.4989H176.498ZM195.406 25.9395C193.75 24.2898 191.508 23.3636 189.171 23.3636C186.833 23.3636 184.591 24.2898 182.935 25.9395C182.12 26.7578 181.479 27.7315 181.048 28.8028C180.618 29.874 180.408 31.021 180.43 32.1753C180.407 33.3275 180.621 34.4721 181.058 35.5384C181.495 36.6048 182.146 37.5704 182.97 38.3756C183.784 39.1988 184.756 39.8484 185.828 40.2852C186.9 40.7219 188.049 40.9366 189.206 40.9163C190.364 40.9367 191.514 40.7154 192.581 40.2663C193.649 39.8173 194.611 39.1505 195.406 38.3086C196.233 37.5026 196.888 36.5371 197.331 35.4707C197.774 34.4042 197.995 33.259 197.983 32.1044C197.997 30.9549 197.776 29.8148 197.332 28.7544C196.888 27.694 196.231 26.7359 195.402 25.9395H195.406Z" fill="#071133"/>
<path d="M25.2403 49.9805C20.2977 49.9805 15.4661 48.5149 11.3564 45.7689C7.2468 43.023 4.04374 39.12 2.15228 34.5536C0.260828 29.9873 -0.234063 24.9626 0.730192 20.1149C1.69445 15.2673 4.07454 10.8144 7.56949 7.31949C11.0644 3.82454 15.5173 1.44445 20.3649 0.480192C25.2126 -0.484063 30.2373 0.010828 34.8036 1.90228C39.37 3.79374 43.273 6.9968 46.0189 11.1064C48.7649 15.2161 50.2305 20.0477 50.2305 24.9903C50.2232 31.6159 47.588 37.968 42.903 42.653C38.218 47.338 31.8659 49.9732 25.2403 49.9805ZM25.2403 6.59817C21.6017 6.59817 18.0449 7.67718 15.0196 9.69873C11.9943 11.7203 9.6364 14.5936 8.24417 17.9553C6.85193 21.3169 6.48786 25.016 7.19799 28.5846C7.90813 32.1531 9.66057 35.431 12.2337 38.0036C14.8068 40.5762 18.0851 42.3279 21.6538 43.0373C25.2225 43.7466 28.9215 43.3818 32.2829 41.9888C35.6442 40.5959 38.517 38.2374 40.5379 35.2116C42.5589 32.1859 43.6371 28.6288 43.6363 24.9903C43.6301 20.1136 41.6898 15.4386 38.2411 11.9906C34.7924 8.54266 30.1169 6.60338 25.2403 6.59817Z" fill="#071133"/>
<path d="M25.2398 37.4857C22.7685 37.4857 20.3527 36.7529 18.2978 35.3799C16.243 34.0069 14.6415 32.0554 13.6958 29.7722C12.75 27.4891 12.5026 24.9767 12.9847 22.5529C13.4669 20.1291 14.6569 17.9026 16.4044 16.1552C18.1518 14.4077 20.3783 13.2176 22.8021 12.7355C25.2259 12.2534 27.7383 12.5008 30.0214 13.4466C32.3046 14.3923 34.2561 15.9938 35.6291 18.0486C37.0021 20.1035 37.7349 22.5193 37.7349 24.9906C37.7318 28.3035 36.4143 31.4799 34.0717 33.8225C31.7291 36.1651 28.5527 37.4826 25.2398 37.4857ZM25.2398 19.0936C24.0711 19.0936 22.9287 19.4401 21.957 20.0894C20.9853 20.7387 20.228 21.6615 19.7808 22.7412C19.3335 23.8209 19.2165 25.0089 19.4445 26.1551C19.6725 27.3013 20.2353 28.3542 21.0616 29.1805C21.888 30.0069 22.9408 30.5696 24.087 30.7976C25.2332 31.0256 26.4213 30.9086 27.501 30.4614C28.5807 30.0142 29.5035 29.2568 30.1528 28.2851C30.802 27.3134 31.1486 26.171 31.1486 25.0024C31.1486 24.2264 30.9957 23.4581 30.6988 22.7412C30.4018 22.0243 29.9666 21.3729 29.4179 20.8242C28.8692 20.2755 28.2179 19.8403 27.501 19.5434C26.7841 19.2464 26.0157 19.0936 25.2398 19.0936Z" fill="#071133"/>
</svg>
