<svg width="84" height="50" viewBox="0 0 84 50" fill="none" xmlns="http://www.w3.org/2000/svg">
<g clip-path="url(#clip0_3661_14112)">
<path d="M0.323568 18.401C0.323568 18.401 -4.61471 51.0583 23.898 49.9707C54.3506 48.7949 63.316 25.5145 62.5517 15.6673C61.8168 6.20232 33.8039 0.764347 22.487 0.0588795C1.35238 -1.23448 0.323568 18.401 0.323568 18.401Z" fill="#D2FFD6"/>
<path d="M83.334 16.1669H60.8178C58.1136 16.1669 55.909 18.3715 55.909 21.0758C55.909 23.7801 58.1136 25.9847 60.8178 25.9847H63.5515C65.0507 25.9847 66.2558 27.1899 66.2558 28.6596C66.2558 30.1293 65.0507 31.3345 63.5515 31.3345H51.3528L48.7661 26.1317C49.207 26.0141 49.5598 25.8377 49.8831 25.6613C51.441 24.8089 52.4992 23.1334 52.4992 21.2228C52.4992 18.4303 50.2652 16.1669 47.5315 16.1669H37.361L32.4228 24.6913H32.3346L27.3669 16.1669H12.2288V33.833H15.0506V26.1317H22.2229V23.6037H15.0212V18.6949H25.6326L30.9531 27.6014V33.833H33.7749V27.5426L39.0953 18.6949H47.3258C48.6779 18.6949 49.7361 19.7825 49.7361 21.164C49.7361 22.5161 48.6485 23.6331 47.3258 23.6331H41.6233V26.1317H45.6209L49.4128 33.833H63.6691C66.5204 33.833 68.8425 31.4815 68.8425 28.6302C68.8425 25.7789 66.5204 23.4568 63.6691 23.4568H60.9648C59.6127 23.4568 58.5251 22.3986 58.5251 21.0758C58.5251 19.7531 59.6127 18.6949 60.9648 18.6949H73.6045V33.833H76.4263V18.6949H83.3046V16.1669H83.334Z" fill="black"/>
</g>
<defs>
<clipPath id="clip0_3661_14112">
<rect width="83.3334" height="50" fill="white"/>
</clipPath>
</defs>
</svg>
