<svg width="311" height="50" viewBox="0 0 311 50" fill="none" xmlns="http://www.w3.org/2000/svg">
<path d="M77.9439 37.405V25.9833H66.0736V37.405H63.4166V12.3878H66.0736V23.6024H77.9439V12.3878H80.6009V37.405H77.9439Z" fill="#00508C"/>
<path d="M102.996 37.4051L100.994 31.746H90.0903L88.089 37.4051H85.2594L94.4727 12.3878H96.7156L105.894 37.4051H102.996ZM90.5734 9.69631V6.55621H93.0924V9.69631H90.5734ZM95.5769 16.2526L90.884 29.4686H100.235L95.5769 16.2526ZM97.9924 9.69631V6.55621H100.511V9.69631H97.9924Z" fill="#00508C"/>
<path d="M126.288 37.405L113.003 17.3567V37.405H110.346V12.3878H112.865L126.15 32.3671V12.3878H128.807V37.405H126.288Z" fill="#00508C"/>
<path d="M149.891 35.0931C148.372 36.6114 146.164 37.405 143.576 37.405H135.018V12.3878H143.576C146.164 12.3878 148.372 13.1814 149.891 14.6997C152.479 17.2877 152.341 21.1179 152.341 24.6031C152.341 28.1227 152.479 32.5051 149.891 35.0931ZM148.027 16.6321C146.716 15.2863 145.06 14.8032 143.127 14.8032H137.675V35.0241H143.127C145.06 35.0241 146.75 34.541 148.027 33.1952C149.753 31.4009 149.684 27.6742 149.684 24.6376C149.684 21.5665 149.753 18.4264 148.027 16.6321Z" fill="#00508C"/>
<path d="M157.931 37.405V12.3878H160.588V34.9896H173.355V37.3705H157.931V37.405Z" fill="#00508C"/>
<path d="M178.048 37.405V12.3878H193.576V14.7687H180.705V23.5679H191.643V25.9488H180.705V34.9896H193.541V37.3705H178.048V37.405Z" fill="#00508C"/>
<path d="M213.141 37.405L207.448 26.2939H201.443V37.405H198.786V12.3878H208.379C212.727 12.3878 215.798 15.0103 215.798 19.3236C215.798 22.9813 213.59 25.3622 210.346 26.0178L216.281 37.3705H213.141V37.405ZM208.103 14.8032H201.443V23.982H208.103C211.002 23.982 213.072 22.4637 213.072 19.4271C213.072 16.3905 211.036 14.8032 208.103 14.8032Z" fill="#00508C"/>
<path d="M231.188 37.405H221.457V12.3878H230.878C235.225 12.3878 238.262 14.8722 238.262 19.0475C238.262 21.67 236.675 23.7404 234.57 24.5341C236.951 25.3967 238.642 27.4671 238.642 30.4692C238.642 35.0241 235.605 37.405 231.188 37.405ZM230.671 14.8032H224.149V23.4644H230.671C233.431 23.4644 235.571 22.0841 235.571 19.1165C235.571 16.1145 233.431 14.8032 230.671 14.8032ZM230.947 25.8453H224.149V35.0241H230.947C234.052 35.0241 235.985 33.2297 235.985 30.4347C235.95 27.6051 234.018 25.8453 230.947 25.8453Z" fill="#00508C"/>
<path d="M252.927 37.6121C247.855 37.6121 244.232 34.127 244.232 29.158V12.4224H246.889V28.951C246.889 32.7467 249.27 35.2312 252.927 35.2312C256.585 35.2312 259.001 32.7467 259.001 28.951V12.4224H261.658V29.158C261.658 34.1615 257.965 37.6121 252.927 37.6121Z" fill="#00508C"/>
<path d="M284.121 37.405L270.836 17.3567V37.405H268.179V12.3878H270.698L283.983 32.3671V12.3878H286.64V37.405H284.121Z" fill="#00508C"/>
<path d="M308.448 35.0931C306.93 36.6114 304.722 37.405 302.134 37.405H293.542V12.3878H302.099C304.687 12.3878 306.896 13.1814 308.414 14.6997C311.002 17.2877 310.864 21.1179 310.864 24.6031C310.898 28.1227 311.036 32.5051 308.448 35.0931ZM306.585 16.6321C305.274 15.2863 303.617 14.8032 301.685 14.8032H296.233V35.0241H301.685C303.617 35.0241 305.308 34.541 306.585 33.1952C308.31 31.4009 308.241 27.6742 308.241 24.6376C308.241 21.5665 308.31 18.4264 306.585 16.6321Z" fill="#00508C"/>
<path d="M0.890625 50V14.9413C0.890625 6.69427 7.58492 0 15.832 0H50.8908V35.0587C50.8908 43.3057 44.1965 50 35.9494 50H0.890625Z" fill="#00508C"/>
<path d="M32.5677 28.882H27.1501L29.2205 21.4286C29.4966 20.3589 29.6346 19.4617 29.6346 18.6681C29.6346 15.9421 27.8748 15.2519 25.5973 15.2519C22.4227 15.2519 20.2143 17.1843 20.2143 17.1843L17.1777 12.733C17.1777 12.733 20.2143 9.55835 25.7009 9.55835C32.0501 9.55835 35.1902 13.1125 35.1902 17.7709C35.1902 18.7716 35.0522 19.7723 34.7761 20.842L32.5677 28.882ZM19.2136 21.0145L24.5967 20.98L22.5608 28.4679C22.2847 29.5376 22.1467 30.4348 22.1467 31.2285C22.1467 33.9545 23.941 34.6446 26.184 34.6101C29.3586 34.6101 31.567 32.6432 31.567 32.6432L34.6381 37.0601C34.6381 37.0601 31.6015 40.2347 26.1495 40.2692C19.8002 40.3037 16.6256 36.784 16.6256 32.0911C16.6256 31.0904 16.7291 30.0898 17.0397 29.02L19.2136 21.0145Z" fill="white"/>
</svg>
