<svg width="195" height="49" viewBox="0 0 195 49" fill="none" xmlns="http://www.w3.org/2000/svg">
<mask id="mask0_3661_14419" style="mask-type:luminance" maskUnits="userSpaceOnUse" x="0" y="0" width="195" height="49">
<path d="M194.23 0.155396H0.961243V48.2323H194.23V0.155396Z" fill="white"/>
</mask>
<g mask="url(#mask0_3661_14419)">
<path d="M48.4642 18.6189H25.5796H25.3873V18.4266V1.11894C25.3873 0.157406 24.2335 -0.227208 23.6566 0.542023L1.34886 27.0805C1.15655 27.2728 1.15656 27.4651 1.15656 27.6574C1.15656 27.8497 1.15656 28.042 1.15656 28.2343C1.15656 28.4266 1.34886 28.619 1.54117 28.619C1.73348 28.8113 1.92579 28.8113 2.11809 28.8113H25.0027H25.195V29.0036V46.3113C25.195 47.2728 26.3489 47.6574 26.9258 46.8882L49.2335 20.1574C49.4258 19.9651 49.4258 19.7728 49.4258 19.5805C49.4258 19.3882 49.4258 19.1959 49.4258 19.0036C49.4258 18.8113 49.2335 18.6189 49.0412 18.6189C48.8489 18.6189 48.6566 18.6189 48.4642 18.6189Z" fill="#CBF200"/>
<path d="M66.5412 45.9245V16.8861C66.5412 16.5015 66.7335 16.1168 66.9258 15.9245C67.1181 15.7322 67.5027 15.5399 67.8874 15.5399H75.3874C75.772 15.5399 76.1566 15.7322 76.3489 15.9245C76.5412 16.1168 76.7335 16.5015 76.7335 16.8861V46.1168C76.7335 46.5015 76.5412 46.8861 76.3489 47.0784C76.1566 47.2707 75.772 47.463 75.3874 47.463H67.8874C67.5027 47.463 67.1181 47.2707 66.9258 47.0784C66.5412 46.6938 66.5412 46.3092 66.5412 45.9245Z" fill="#1D1D1B"/>
<path d="M66.5412 8.8099V1.50221C66.5412 1.3099 66.5412 1.11759 66.7335 0.925284C66.7335 0.732976 66.9258 0.540667 67.1181 0.540667C67.3104 0.348359 67.3104 0.348358 67.5027 0.15605C67.695 0.15605 67.8874 -0.0362549 68.0797 -0.0362549H75.3874C75.772 -0.0362549 76.1566 0.156054 76.3489 0.348362C76.5412 0.54067 76.7335 0.925285 76.7335 1.3099V8.61759C76.7335 9.00221 76.5412 9.38682 76.3489 9.57913C76.1566 9.77144 75.772 9.96375 75.3874 9.96375H68.0797C67.6951 9.96375 67.3104 9.77144 67.1181 9.57913C66.7335 9.57913 66.5412 9.19451 66.5412 8.8099Z" fill="#1D1D1B"/>
<path d="M109.427 46.6945L102.312 34.5791L93.4658 46.8868C93.2735 47.0791 93.2735 47.0791 93.0812 47.2714C92.8889 47.2714 92.6965 47.4637 92.5042 47.4637H86.735C86.3504 47.4637 85.9658 47.2714 85.7735 47.0791C85.5812 46.8868 85.3889 46.5022 85.3889 46.1176V1.3099C85.3889 0.925285 85.5812 0.54067 85.7735 0.348362C85.9658 0.156054 86.3504 -0.0362549 86.735 -0.0362549H94.235C94.6196 -0.0362549 95.0042 0.156054 95.1965 0.348362C95.3889 0.54067 95.5812 0.925285 95.5812 1.3099V29.7714L108.081 10.5407C108.273 10.3484 108.273 10.1561 108.466 10.1561C108.658 9.96374 108.85 9.96375 109.043 9.96375H118.081C118.273 9.96375 118.466 9.96374 118.658 10.1561C118.85 10.3484 119.043 10.3484 119.043 10.733C119.235 10.9253 119.235 11.1176 119.235 11.3099C119.235 11.5022 119.043 11.6945 119.043 11.8868L109.235 25.3484L120.581 45.1561C120.773 45.3484 120.773 45.5407 120.773 45.733C120.773 45.9253 120.773 46.1176 120.581 46.3099C120.389 46.5022 120.389 46.6945 120.197 46.6945C120.004 46.8868 119.812 46.8868 119.62 46.8868H110.773C110.581 46.8868 110.389 46.8868 110.197 46.6945C109.812 47.0791 109.62 46.8868 109.427 46.6945Z" fill="#1D1D1B"/>
<path d="M137.89 47.8491C128.275 47.8491 121.544 39.9645 121.544 28.6183C121.544 17.2722 128.275 9.38757 137.89 9.38757C141.929 9.38757 145.583 11.1183 148.467 14.3876L148.66 14.5799V14.1953C148.66 13.426 148.66 12.2722 148.852 11.3107C148.852 10.926 149.044 10.7337 149.236 10.5414C149.429 10.3491 149.813 10.1568 150.006 10.1568H157.121C157.506 10.1568 157.89 10.3491 158.083 10.5414C158.275 10.7337 158.467 11.1183 158.467 11.503V45.926C158.467 46.3106 158.275 46.6953 158.083 46.8876C157.89 47.0799 157.506 47.2722 157.121 47.2722H150.006C149.621 47.2722 149.429 47.0799 149.236 46.8876C149.044 46.6953 148.852 46.3106 148.852 46.1183C148.852 45.1568 148.66 43.8106 148.66 43.2337V42.8491L148.467 43.0414C145.583 46.1183 141.929 47.8491 137.89 47.8491ZM148.852 25.3491C148.66 23.6183 147.698 21.8876 146.352 20.7337C144.813 19.3876 142.698 18.6183 140.583 18.6183C135.198 18.6183 131.352 22.8491 131.352 28.6183C131.352 34.9645 134.621 38.6183 140.583 38.6183C141.736 38.6183 142.89 38.426 144.044 38.0414C146.737 36.8876 148.467 34.5799 148.852 31.8876L149.044 31.1183C149.237 29.3876 149.237 27.6568 149.044 25.926L148.852 25.3491Z" fill="#1D1D1B"/>
<path d="M178.273 48.2315C172.504 48.2315 168.85 47.0777 166.927 46.1161C166.158 45.7315 165.389 45.3469 164.62 44.77C164.427 44.5777 164.235 44.3854 164.235 44.0007C164.235 43.8084 164.235 43.4238 164.427 43.2315L167.312 37.8469C167.312 37.6546 167.504 37.6546 167.697 37.4623C167.889 37.27 168.081 37.27 168.081 37.27C168.273 37.27 168.466 37.27 168.658 37.27C168.85 37.27 169.043 37.4623 169.043 37.4623C172.697 40.1546 176.735 40.3469 178.273 40.3469C181.735 40.3469 183.466 39.193 183.466 36.8854C183.466 34.0007 180.581 33.2315 177.12 32.4623C176.735 32.4623 176.35 32.27 176.158 32.27C171.35 31.1161 165.197 28.8084 165.197 21.8854C165.197 18.4238 166.735 15.3469 169.62 13.2315C172.504 11.1161 176.35 9.96228 180.581 9.96228C186.735 9.96228 191.158 12.0777 193.081 13.2315C193.273 13.4238 193.466 13.6161 193.658 14.0007C193.658 14.3854 193.658 14.5777 193.658 14.9623L190.966 20.1546C190.581 20.7315 189.812 20.9238 189.235 20.7315C185.773 18.8084 182.697 18.2315 180.773 18.2315C179.427 18.2315 175.966 18.2315 175.966 21.5007C175.966 24.0007 178.081 24.3854 180.581 24.9623C181.35 25.1546 182.312 25.3469 183.466 25.7315C186.735 26.6931 194.427 29.193 194.427 36.5007C194.427 39.9623 192.889 43.0392 190.004 45.3469C186.927 46.8854 182.889 48.2315 178.273 48.2315Z" fill="#1D1D1B"/>
</g>
</svg>
