<svg width="220" height="50" viewBox="0 0 220 50" fill="none" xmlns="http://www.w3.org/2000/svg">
<path fill-rule="evenodd" clip-rule="evenodd" d="M97.6562 27.6563C97.0312 26.875 96.0938 26.25 95.1562 25.7812C94.0625 25.3125 92.9688 25.1562 91.875 25.1562C90.625 25.1562 89.375 25.3125 88.125 25.7812C87.0312 26.25 85.9375 26.875 85.1562 27.6563C84.375 28.4375 83.5938 29.375 83.125 30.4688C82.1875 33.125 82.1875 36.25 83.125 38.9062C83.5938 40 84.2188 40.9375 85.1562 41.7188C86.0938 42.5 87.0312 43.125 88.125 43.5938C89.375 44.0625 90.625 44.2188 91.875 44.2188C93.2812 44.2188 94.6875 43.9062 95.9375 43.2812C96.875 42.8125 97.8125 42.1875 98.5938 41.4062C98.9062 41.0938 98.9062 40.625 98.5938 40.3125L96.25 38.4375L96.0938 38.2812C95.7812 38.125 95.3125 38.125 95.1562 38.4375C94.8438 38.75 94.375 39.2188 94.0625 39.375C93.4375 39.8438 92.6562 40 91.875 40C90.9375 40 90 39.6875 89.2188 39.0625C88.4375 38.2812 87.9688 37.1875 87.8125 35.9375C87.8125 35.7812 87.9688 35.625 88.125 35.625H99.2188C99.6875 35.625 100 35.3125 100 34.8438V34.0625C100 32.8125 99.8438 31.5625 99.375 30.3125C99.0625 29.375 98.4375 28.4375 97.6562 27.6563ZM94.2188 32.1875H88.125C87.9688 32.1875 87.8125 32.0312 87.6562 31.875C87.6562 31.5625 87.8125 31.25 87.9688 31.0938C88.125 30.7812 88.4375 30.3125 88.75 30C89.5312 29.375 90.4688 28.9062 91.4062 29.0625C92.3438 29.0625 93.125 29.375 93.75 30C94.2188 30.4688 94.5312 31.25 94.6875 31.875C94.5312 32.0312 94.375 32.1875 94.2188 32.1875ZM112.031 25.625H109.219C109.062 25.625 108.906 25.4688 108.906 25.3125V24.0625C108.906 22.9688 109.062 22.1875 109.531 21.875C110.156 21.4062 110.781 21.25 111.406 21.25H112.656C113.125 21.25 113.438 20.9375 113.438 20.4688V17.6562C113.438 17.1875 113.125 16.875 112.656 16.875H110.312C109.062 16.875 107.969 17.0312 106.875 17.5C106.094 17.8125 105.312 18.2812 104.844 19.0625C104.375 19.6875 104.062 20.4688 103.906 21.25C103.75 22.1875 103.594 22.9688 103.594 23.9062V25.625C103.594 25.7812 103.438 25.9375 103.281 25.9375H100.938C100.469 25.9375 100.156 26.25 100.156 26.7188V29.375C100.156 29.8437 100.469 30.1562 100.938 30.1562H103.125C103.281 30.1562 103.438 30.3125 103.594 30.4688V43.2812C103.594 43.75 103.906 44.0625 104.375 44.0625H108.125C108.594 44.0625 108.906 43.75 108.906 43.2812V30.4688C108.906 30.3125 109.062 30.1562 109.219 30.1562H112.031C112.5 30.1562 112.812 29.8437 112.812 29.375V26.7188C112.812 25.9375 112.344 25.625 112.031 25.625ZM77.9688 17.0312C76.25 17.0312 74.8438 18.4375 74.8438 20.1562C74.8438 21.875 76.25 23.2812 77.9688 23.2812C79.6875 23.2812 81.0938 21.875 81.0938 20.1562C81.0938 19.375 80.7812 18.5938 80.1562 17.9688C79.5312 17.3438 78.75 17.0312 77.9688 17.0312ZM79.6875 25.625H76.0938C75.625 25.625 75.3125 25.9375 75.3125 26.4062V42.9688C75.3125 43.4375 75.625 43.75 76.0938 43.75H79.6875C80.1562 43.75 80.4688 43.4375 80.4688 42.9688V26.4062C80.4688 25.9375 80.1562 25.625 79.6875 25.625ZM143.281 25.1562H142.344C141.25 25.1562 140.312 25.4688 139.375 25.9375C138.75 26.4062 138.281 26.875 137.969 27.5V27.6563L137.812 27.8125C137.656 27.8125 137.5 27.6562 137.5 27.5V26.4062C137.5 25.9375 137.188 25.625 136.719 25.625H132.812C132.344 25.625 132.031 25.9375 132.031 26.4062V43.125C132.031 43.5938 132.344 43.9062 132.812 43.9062H136.562C137.031 43.9062 137.344 43.5938 137.344 43.125V35.7812C137.344 35 137.344 34.2188 137.5 33.4375C137.5 32.8125 137.812 32.1875 138.125 31.5625C138.438 31.0938 138.906 30.625 139.531 30.3125C140.156 30 140.781 29.8438 141.406 29.8438H143.281C143.75 29.8438 144.062 29.5312 144.062 29.0625V25.9375C144.062 25.4688 143.75 25.1562 143.281 25.1562ZM128.438 27.6563C127.812 26.875 126.875 26.25 125.938 25.7812C124.844 25.3125 123.75 25.1562 122.656 25.1562C121.406 25.1562 120.156 25.3125 118.906 25.7812C117.812 26.25 116.719 26.875 115.781 27.6563C114.844 28.4375 114.219 29.375 113.75 30.4688C112.813 33.125 112.813 36.25 113.75 38.9062C114.219 40 114.844 40.9375 115.781 41.7188C116.719 42.5 117.656 43.125 118.906 43.5938C120.156 44.0625 121.406 44.2188 122.656 44.2188C124.062 44.2188 125.469 43.9062 126.719 43.2812C127.656 42.8125 128.594 42.1875 129.375 41.4062C129.688 41.0938 129.688 40.625 129.375 40.3125L127.031 38.4375H126.562C126.25 38.2812 125.781 38.2812 125.625 38.5938C125.312 38.9062 124.844 39.375 124.531 39.5312C123.906 40 123.125 40.1562 122.344 40.1562C121.406 40.1562 120.469 39.8438 119.688 39.2188C118.906 38.4375 118.437 37.3438 118.281 36.0938C118.281 35.9375 118.438 35.7812 118.594 35.7812H129.688C130.156 35.7812 130.469 35.4688 130.469 35V34.2188C130.469 32.9688 130.312 31.7188 129.844 30.4688C129.688 29.375 129.219 28.4375 128.438 27.6563ZM124.844 32.1875H118.75C118.594 32.1875 118.437 32.0312 118.281 31.875C118.281 31.5625 118.438 31.25 118.594 31.0938C118.75 30.7812 119.062 30.3125 119.375 30C119.688 29.6875 120.156 29.375 120.469 29.2188C120.938 29.0625 121.406 28.9062 122.031 28.9062C122.969 28.9062 123.75 29.2188 124.375 29.8438C124.844 30.3125 125.156 31.0937 125.156 31.7187C125.156 32.0312 125 32.1875 124.844 32.1875ZM72.5 38.5938H63.4375C63.2812 38.5938 63.125 38.4375 63.125 38.2812V19.5312C63.125 19.0625 62.8125 18.75 62.3438 18.75H58.4375C57.9688 18.75 57.6563 19.0625 57.6563 19.5312V42.9688C57.6563 43.4375 57.9688 43.75 58.4375 43.75H72.5C72.9688 43.75 73.2812 43.4375 73.2812 42.9688V39.5312C73.2812 39.0625 72.9688 38.75 72.5 38.5938ZM158.594 27.5C157.969 26.7188 157.188 26.0938 156.25 25.7812C155 25.3125 153.75 25.1562 152.5 25.1562C151.094 25.1562 149.688 25.4688 148.438 25.7812C147.344 26.0938 146.406 26.7188 145.625 27.3438C145.312 27.6562 145.312 28.125 145.625 28.4375L147.344 30.1562C147.656 30.4687 148.125 30.4687 148.438 30.1562C148.906 29.8437 149.219 29.5313 149.844 29.2188C150.625 28.9063 151.406 28.5937 152.188 28.5937C153.125 28.5937 153.906 28.9062 154.531 29.375C155.156 29.8437 155.469 30.7813 155.469 32.3438C155.469 32.5 155.312 32.6562 155.156 32.6562H153.125C152.344 32.6562 151.406 32.8125 150.469 32.8125C149.688 32.9688 148.75 33.125 147.969 33.2812C147.188 33.5938 146.562 33.9062 145.781 34.375C145.156 34.8438 144.688 35.4688 144.375 36.0938C144.062 36.875 143.75 37.6562 143.75 38.5938C143.75 39.375 143.906 40.1562 144.219 40.9375C144.531 41.5625 145 42.1875 145.625 42.6562C146.25 43.125 146.875 43.4375 147.5 43.5938C148.281 43.75 149.062 43.9062 149.844 43.9062C150.938 43.9062 151.875 43.75 152.969 43.2812C153.75 42.9688 154.375 42.5 154.844 41.875H155.156L155.312 42.0312V42.6562C155.312 43.125 155.625 43.4375 156.094 43.4375H159.375C159.844 43.4375 160.156 43.125 160.156 42.6562V34.6875C160.156 33.125 160 31.5625 159.844 29.8438C159.688 29.2188 159.219 28.2812 158.594 27.5ZM155.312 37.3438C155.312 38.2812 154.844 39.2188 154.062 39.6875C153.75 40 153.281 40.1562 152.812 40.3125C152.344 40.4688 151.875 40.4688 151.25 40.4688C150.625 40.4688 150 40.3125 149.531 40C149.062 39.6875 148.75 39.2188 148.75 38.5938C148.75 38.125 148.906 37.5 149.375 37.1875C149.844 36.875 150.312 36.5625 150.781 36.4062C151.406 36.25 151.875 36.0938 152.5 36.0938H155C155.156 36.0938 155.312 36.25 155.312 36.4062V37.3438ZM177.5 27.3438C177.031 26.5625 176.406 25.9375 175.625 25.625C174.531 25.1562 173.438 25 172.344 25C171.719 25 171.094 25.1563 170.625 25.3125C170.156 25.4688 169.688 25.625 169.219 25.9375C168.75 26.25 168.438 26.4063 168.125 26.875C167.969 27.0313 167.969 27.1875 167.812 27.1875L167.656 27.3438C167.5 27.3438 167.344 27.1875 167.344 27.0312V26.4062C167.344 25.9375 167.031 25.625 166.562 25.625H163.125C162.656 25.625 162.344 25.9375 162.344 26.4062V43.125C162.344 43.5938 162.656 43.9062 163.125 43.9062H166.875C167.344 43.9062 167.656 43.5938 167.656 43.125V34.2188C167.656 33.75 167.656 33.125 167.812 32.6562C167.812 32.1875 168.125 31.7188 168.281 31.25C168.438 30.7812 168.906 30.4688 169.219 30.3125C169.688 30 170.312 30 170.938 30C172.031 29.8438 172.969 30.4688 173.281 31.5625C173.438 32.0312 173.594 32.5 173.594 33.125V43.4375C173.594 43.9062 173.906 44.2188 174.375 44.2188H178.125C178.594 44.2188 178.906 43.9062 178.906 43.4375V33.5938C178.906 32.5 178.75 31.4062 178.594 30.3125C178.281 29.2188 177.969 28.2812 177.5 27.3438ZM198.125 17.0312H194.375C193.906 17.0312 193.594 17.3438 193.594 17.8125V26.7188C193.594 26.875 193.438 27.0312 193.281 27.0312C193.125 27.0312 193.125 27.0313 193.125 26.875L192.969 26.7188C192.5 26.25 191.875 25.9375 191.25 25.625C190.312 25.3125 189.219 25.1562 188.125 25.1562C187.031 25.1562 185.781 25.4688 184.844 25.9375C183.906 26.4062 183.125 27.1875 182.344 27.9688C181.719 28.9062 181.094 29.8437 180.781 30.9375C180 33.5938 180 36.4062 180.781 38.9062C181.094 40 181.719 40.9375 182.5 41.7188C183.281 42.5 184.219 43.125 185.156 43.5938C186.25 44.0625 187.5 44.2188 188.594 44.2188C189.219 44.2188 189.688 44.0625 190.312 43.9062C190.781 43.75 191.406 43.5938 191.875 43.2812C192.344 42.9688 192.656 42.8125 193.125 42.5L193.438 42.1875L193.594 42.0312L193.75 41.875C193.906 41.875 194.062 42.0312 194.062 42.1875V42.9688C194.062 43.4375 194.375 43.75 194.844 43.75H198.125C198.594 43.75 198.906 43.4375 198.906 42.9688V17.9688C198.906 17.5 198.594 17.0312 198.125 17.0312ZM192.969 38.2812C191.25 39.8438 188.438 39.8438 186.719 38.2812C185.938 37.5 185.625 35.9375 185.625 34.5312C185.625 33.2812 185.938 31.7187 186.719 30.9375C188.438 29.375 191.25 29.375 192.969 30.9375C193.75 31.7187 194.062 33.2812 194.062 34.5312C194.062 35.7812 193.594 37.5 192.969 38.2812ZM216.406 27.9688C215.469 27.1875 214.531 26.5625 213.438 26.0938C211.094 25.3125 208.438 25.3125 205.938 26.0938C204.844 26.5625 203.75 27.1875 202.969 27.9688C202.187 28.75 201.406 29.6875 200.938 30.7813C200 33.4375 200 36.5625 200.938 39.2188C201.406 40.3125 202.031 41.25 202.969 42.0312C203.906 42.8125 204.844 43.4375 205.938 43.9062C208.281 44.6875 210.938 44.6875 213.438 43.9062C214.531 43.4375 215.625 42.8125 216.406 42.0312C217.188 41.25 217.969 40.3125 218.438 39.2188C219.375 36.5625 219.375 33.4375 218.438 30.7813C217.969 29.6875 217.188 28.75 216.406 27.9688ZM212.812 38.5938C211.094 40.1562 208.281 40.1562 206.562 38.5938C205.781 37.8125 205.469 36.25 205.469 35C205.469 33.75 205.781 32.1875 206.562 31.4062C208.281 29.8438 211.094 29.8438 212.812 31.4062C213.594 32.1875 213.906 33.75 213.906 35C213.906 36.25 213.438 37.8125 212.812 38.5938ZM48.4375 24.2188C48.2812 23.75 46.25 20 42.1875 15C42.0312 14.8438 42.0312 14.6875 42.0312 14.5312C41.7188 11.7188 41.4062 8.90625 40.7812 6.09375C40.625 5.46875 40.1562 5.15625 39.5312 5L35.4688 4.53125H35.3125C34.8438 4.53125 34.5312 4.84375 34.5312 5.3125V6.71875C32.0312 4.375 29.2187 2.34375 26.25 0.46875C25.625 0.3125 25 0 24.2188 0C23.4375 0 22.8125 0.15625 22.1875 0.625C8.28125 9.375 0.46875 23.4375 0.15625 24.2188C0.15625 24.375 0 24.5312 0 24.8438C0 25.4688 0.46875 26.0937 1.09375 26.25L5.15625 27.0312C5.625 27.1875 6.09375 27.6562 6.09375 28.2812C6.09375 29.0625 6.875 45 7.8125 49.0625C8.125 49.5312 8.59375 50 9.21875 50C11.5625 50 13.75 49.8438 16.0938 49.8438H16.25C16.5625 49.8438 16.7188 49.6875 16.7188 49.375C16.5625 47.9688 16.4062 44.8438 16.25 41.4062V41.0938C16.25 40.7812 16.0938 40.625 15.7813 40.4688C14.5313 39.6875 13.75 38.4375 13.5938 37.0312C13.4375 31.4063 13.2812 25 13.5938 19.8438C13.5938 19.375 13.9062 19.0625 14.375 19.0625C14.8438 19.0625 15.1562 19.375 15.1562 19.8438C15 23.2812 15 27.1875 15 31.0938C15 31.5625 15.4688 32.0312 15.9375 32.0312C16.4062 32.0312 16.875 31.5625 16.875 31.0938C16.875 27.1875 16.875 23.125 17.0312 19.6875C17.0312 19.2188 17.3438 18.9062 17.8125 18.9062C18.2812 18.9062 18.5938 19.2188 18.5938 19.6875C18.75 23.2812 18.75 27.3438 18.75 31.25C18.75 31.7188 19.2188 32.1875 19.6875 32.1875C20.1562 32.1875 20.625 31.7188 20.625 31.25C20.625 27.3438 20.625 23.2812 20.7812 20C20.7812 19.5312 21.25 19.2188 21.5625 19.2188C22.0312 19.2188 22.3438 19.5312 22.3438 20C22.0312 24.8438 22.1875 31.0938 22.3438 36.5625V36.7188C22.3438 38.125 21.5625 39.5312 20.4688 40.3125C20.3125 40.4688 20.1562 40.625 20.1562 40.9375C20.1562 40.9375 20 41.7188 20.4688 45.7812C20.625 47.5 20.7812 48.75 20.7812 49.375C20.7812 49.5312 20.9375 49.6875 21.25 49.6875H29.6875C29.8438 49.6875 30.1562 49.5312 30.1562 49.375C30.625 44.5312 30.7813 41.7188 30.7813 41.7188C30.7813 41.4062 30.625 41.25 30.3125 41.25L27.5 40.9375C27.1875 40.9375 26.875 40.625 26.7188 40.3125V39.8438C27.8125 23.5938 33.2812 18.125 33.2812 18.125C33.4375 17.9688 33.4375 17.9688 33.5938 17.9688C33.9062 17.6562 34.5312 17.8125 34.8438 18.125L35 18.2812V18.5938C35.4688 23.75 35.3125 32.3438 35 39.2188C34.6875 45 34.5312 49.5312 34.5312 49.5312C34.5312 49.6875 34.6875 49.8438 34.8438 49.8438C36.4062 49.8438 37.8125 49.8438 39.375 50C40 50 40.625 49.5312 40.7812 48.9062C41.7188 44.6875 42.5 28.75 42.5 28.125C42.5 27.5 42.9688 27.0313 43.4375 26.875L47.5 26.0938C48.2812 25.9375 48.75 25.1562 48.4375 24.375V24.2188Z" fill="#FF8000"/>
</svg>
