<svg width="178" height="50" viewBox="0 0 178 50" fill="none" xmlns="http://www.w3.org/2000/svg">
<g clip-path="url(#clip0_3661_14001)">
<path d="M90.8412 48.1058H97.549V29.1662C97.549 24.6208 100.807 21.0225 105.023 21.0225C109.239 21.0225 112.881 24.4314 112.881 29.1662V48.1058H120.163V28.7875C120.163 20.6436 113.456 14.3936 106.173 14.3936C103.49 14.3936 100.04 15.3406 97.549 18.7497V15.1512H90.8412V48.1058Z" fill="#1D1D1B"/>
<path d="M159.452 14.3936C149.678 14.3936 142.012 22.1587 142.012 31.8179C142.012 41.6662 149.486 48.8633 159.452 48.8633C169.418 48.8633 177.084 41.6662 177.084 31.8179C177.084 22.1587 169.609 14.3936 159.452 14.3936ZM159.452 42.0452C153.894 42.0452 149.486 37.4996 149.486 31.8179C149.486 25.7573 154.086 21.4012 159.452 21.4012C165.201 21.4012 169.801 25.7573 169.801 31.8179C169.801 37.4996 165.393 42.0452 159.452 42.0452Z" fill="#1D1D1B"/>
<path d="M140.862 48.1056V41.0981C135.879 43.5602 131.088 41.6663 131.088 36.174V21.78H140.095V15.1511H131.088V6.62842H123.997V35.0375C123.997 46.78 132.046 50.7573 140.862 48.1056Z" fill="#1D1D1B"/>
<path d="M69.3767 14.3936C59.6025 14.3936 51.9367 22.1587 51.9367 31.8179C51.9367 41.6662 59.4108 48.8633 69.3767 48.8633C79.3423 48.8633 87.0083 41.6662 87.0083 31.8179C87.0083 22.1587 79.534 14.3936 69.3767 14.3936ZM69.3767 42.0452C63.8187 42.0452 59.4108 37.4996 59.4108 31.8179C59.4108 25.7573 63.8187 21.4012 69.3767 21.4012C75.126 21.4012 79.7256 25.7573 79.7256 31.8179C79.7256 37.4996 75.126 42.0452 69.3767 42.0452Z" fill="#1D1D1B"/>
<path d="M24.3394 0C10.5407 0 0 10.4167 0 24.6213C0 38.2575 10.5407 49.0531 24.3394 49.0531C38.5215 49.0531 49.0621 38.2575 49.0621 24.8106C49.0621 10.4167 38.5215 0 24.3394 0ZM24.3394 41.6667C14.757 41.6667 7.66594 34.4698 7.66594 24.6213C7.66594 14.3939 14.757 6.81819 24.3394 6.81819C34.1135 6.81819 41.2044 14.3939 41.2044 24.4319C41.2044 34.4698 34.1135 41.6667 24.3394 41.6667Z" fill="#1D1D1B"/>
<path d="M47.9121 50C34.1133 48.4848 25.2975 41.6667 20.8896 28.7879L27.789 26.5152C31.2385 36.7425 37.7546 41.856 48.6785 42.9925L47.9121 50Z" fill="#1D1D1B"/>
</g>
<defs>
<clipPath id="clip0_3661_14001">
<rect width="177.083" height="50" fill="white"/>
</clipPath>
</defs>
</svg>
