<svg width="171" height="50" viewBox="0 0 171 50" fill="none" xmlns="http://www.w3.org/2000/svg">
<g clip-path="url(#clip0_3661_14406)">
<path d="M42.8334 26.6832H27.4745C28.1463 29.0691 30.2309 30.7165 32.8514 30.7165C34.6322 30.7165 36.2116 29.8768 37.2873 28.4986L41.286 31.3883C39.1347 34.1101 36.0437 35.4216 32.7155 35.4216C26.7668 35.4216 22.2629 30.9178 22.2629 25.1383C22.2629 19.3588 26.6655 14.855 32.6142 14.855C38.5629 14.855 42.9655 19.2242 42.9655 25.1383C42.9655 25.6755 42.9322 26.146 42.8309 26.6845L42.8334 26.6832ZM37.8591 22.9524C37.1193 20.7345 35.1373 19.3896 32.7168 19.3896C30.2963 19.3896 28.3475 20.7678 27.6078 22.9524H37.8578H37.8591Z" fill="#332E80"/>
<path d="M60.0605 15.3156H62.7157V19.8194H60.0605V35.0181H54.9515V19.8194H53.0362V15.3156H54.9515V13.7643C54.9515 9.09247 57.808 7.81555 61.6054 7.81555H63.6554V12.4194H61.7733C60.5298 12.4194 60.0592 12.8566 60.0592 14.0656V15.3143L60.0605 15.3156Z" fill="#332E80"/>
<path d="M78.3424 15.2565H83.5847V35.018H78.577V33.4385C77.468 34.7488 75.7206 35.4219 73.7706 35.4219C69.4347 35.4219 66.377 32.4975 66.377 27.8937V15.2578H71.586V26.9872C71.586 29.2385 72.8629 30.5501 74.8796 30.5501C76.8962 30.5501 78.3411 29.2052 78.3411 26.9872V15.2578L78.3424 15.2565Z" fill="#332E80"/>
<path d="M124.195 25.137C124.195 31.0858 119.859 35.4204 114.213 35.4204C111.726 35.4204 109.777 34.546 108.432 33.1345V35.0165H103.526V7.81396H108.702V16.8345C110.08 15.5909 111.962 14.8511 114.213 14.8511C119.859 14.8511 124.195 19.2204 124.195 25.1345V25.137ZM118.953 25.0358C118.953 21.8768 116.667 19.5909 113.643 19.5909C110.618 19.5909 108.299 21.8768 108.299 25.0358C108.299 28.1947 110.618 30.514 113.643 30.514C116.667 30.514 118.953 28.2281 118.953 25.0358Z" fill="#332E80"/>
<path d="M147.209 26.6832H131.85C132.522 29.0691 134.607 30.7165 137.227 30.7165C139.008 30.7165 140.588 29.8768 141.663 28.4986L145.662 31.3883C143.511 34.1101 140.42 35.4216 137.091 35.4216C131.143 35.4216 126.639 30.9178 126.639 25.1383C126.639 19.3588 131.041 14.855 136.99 14.855C142.939 14.855 147.341 19.2242 147.341 25.1383C147.341 25.6755 147.308 26.146 147.207 26.6845L147.209 26.6832ZM142.235 22.9524C141.495 20.7345 139.513 19.3896 137.093 19.3896C134.672 19.3896 132.724 20.7678 131.984 22.9524H142.234H142.235Z" fill="#332E80"/>
<path d="M165.297 7.81555H170.506V35.0181H165.566V33.1361C164.221 34.5476 162.272 35.422 159.785 35.422C154.139 35.422 149.803 31.0861 149.803 25.1386C149.803 19.1912 154.139 14.8553 159.785 14.8553C162.036 14.8553 163.953 15.595 165.297 16.8386V7.81811V7.81555ZM165.699 25.0361C165.699 21.8771 163.413 19.5912 160.356 19.5912C157.298 19.5912 155.045 21.8771 155.045 25.0361C155.045 28.195 157.365 30.5143 160.356 30.5143C163.347 30.5143 165.699 28.2284 165.699 25.0361Z" fill="#332E80"/>
<path d="M24.9887 50.0411C11.2002 50.0411 -0.0177307 38.8232 -0.0177307 25.0347C-0.0177307 11.2463 11.2002 0.0283203 24.9887 0.0283203C38.7771 0.0283203 49.9951 11.2463 49.9951 25.0347C49.9951 38.8232 38.7771 50.0411 24.9887 50.0411ZM24.9887 3.13345C12.9118 3.13345 3.0874 12.9578 3.0874 25.0347C3.0874 37.1116 12.9118 46.936 24.9887 46.936C37.0656 46.936 46.89 37.1116 46.89 25.0347C46.89 12.9578 37.0656 3.13345 24.9887 3.13345Z" fill="#332E80"/>
<path d="M14.5925 17.5679L14.3912 15.2563H9.66425V35.0179H14.836V20.4127C16.7783 20.9422 20.6745 21.1743 22.4989 15.4243C17.8886 13.9614 15.6527 15.805 14.5925 17.5679Z" fill="#332E80"/>
<path d="M93.3194 17.5679L93.1182 15.2563H88.3912V35.0179H93.563V20.4127C95.5053 20.9422 99.4015 21.1743 101.226 15.4243C96.6156 13.9614 94.3797 15.805 93.3194 17.5679Z" fill="#332E80"/>
</g>
<defs>
<clipPath id="clip0_3661_14406">
<rect width="170.513" height="50" fill="white"/>
</clipPath>
</defs>
</svg>
