<svg width="147" height="50" viewBox="0 0 147 50" fill="none" xmlns="http://www.w3.org/2000/svg">
<g clip-path="url(#clip0_3661_13988)">
<path fill-rule="evenodd" clip-rule="evenodd" d="M79.3002 15.5C79.8202 15.56 80.1602 15.94 80.1802 16.46C80.2002 16.98 80.2002 17.48 80.1802 18C80.1602 18.52 79.8401 18.86 79.3201 18.96C78.9801 19.02 78.6402 18.98 78.3002 19C77.9802 18.98 77.6402 19.02 77.3002 18.96C76.8202 18.88 76.5402 18.6 76.5002 18.12C76.4402 17.52 76.4402 16.94 76.5002 16.34C76.5402 15.9 76.8602 15.58 77.3002 15.52C77.9802 15.44 78.6402 15.44 79.3002 15.5ZM110.28 23.88C108.64 24.4 107.92 26.16 107.88 27.58C107.88 27.78 108 27.8 108.14 27.8H114.56C115.46 27.8 115.48 27.8 115.3 26.88C114.84 24.3 112.68 23.14 110.28 23.88ZM90.7801 24.08C89.5802 24.42 89.0002 25.4 88.7002 26.52C88.2402 28.22 88.2601 29.94 88.6601 31.66C88.8801 32.56 89.2801 33.36 90.0802 33.92C90.9601 34.52 91.9401 34.58 92.9401 34.46C93.7801 34.38 94.5201 34 95.0401 33.32C95.4801 32.74 95.7801 32.1 95.9601 31.4C96.1401 30.64 96.1601 29.86 96.1401 29.2C96.1401 28.54 96.1401 27.98 96.0601 27.42C95.9201 26.34 95.5001 25.38 94.6601 24.68C93.5201 23.68 92.1602 23.68 90.7801 24.08ZM126.1 15.7C126.6 15.72 126.96 16.1 126.96 16.62C126.98 17.22 126.96 17.84 126.96 18.44V35.88C126.96 36.72 126.62 37.04 125.8 37.04C125.44 37.04 125.08 37.04 124.72 37.04C124.14 37.04 123.76 36.68 123.74 36.08V35.94V35.8C123.74 29.5 123.74 23.22 123.74 16.92C123.74 16.74 123.74 16.54 123.78 16.34C123.9 15.96 124.18 15.68 124.58 15.68C125.1 15.7 125.62 15.7 126.1 15.7ZM78.9601 21.26C79.5601 21.26 79.9401 21.62 79.9401 22.24C79.9401 23.62 79.9401 25 79.9401 26.4V35.86C79.9401 36.74 79.6401 37.04 78.7401 37.04C78.3801 37.04 78.0402 37.04 77.6802 37.04C77.1402 37.04 76.7801 36.7 76.7201 36.16C76.7001 36.06 76.7201 35.98 76.7201 35.86V22.38C76.7201 22.12 76.7402 21.84 76.9002 21.62C77.0802 21.36 77.3401 21.22 77.6601 21.22C78.0801 21.26 78.5201 21.26 78.9601 21.26ZM66.7401 15.7C67.4201 15.7 67.7802 16.06 67.7802 16.76C67.7802 18.12 67.7802 19.5 67.7802 20.86C67.7802 21.18 67.8602 21.28 68.1802 21.28C69.1402 21.26 70.1001 21.28 71.0601 21.28C71.7201 21.28 72.0602 21.62 72.0802 22.28C72.0802 22.58 72.0802 22.88 72.0802 23.18C72.0802 23.68 71.8002 23.98 71.3002 24.1C71.0802 24.14 70.8601 24.14 70.6401 24.14C69.8201 24.14 69.0002 24.14 68.1802 24.14C67.9002 24.14 67.7802 24.2 67.7802 24.5C67.8002 26.9 67.7802 29.28 67.8002 31.66C67.8002 32.2 67.8802 32.72 68.0802 33.22C68.3002 33.82 68.7401 34.12 69.3601 34.14C69.9601 34.16 70.5802 34.14 71.1802 34.16C72.0002 34.16 72.3601 34.5 72.3601 35.32C72.3601 35.66 72.3801 36 72.3201 36.34C72.2401 36.72 71.9602 37.04 71.5802 37.04C70.4002 37.04 69.2402 37.16 68.0802 36.94C66.3802 36.6 65.3402 35.56 64.8802 33.92C64.7002 33.28 64.6201 32.62 64.6201 31.96C64.6201 29.48 64.6201 26.98 64.6201 24.5V16.88C64.6201 16.02 64.9202 15.72 65.7602 15.72C66.0802 15.7 66.4201 15.7 66.7401 15.7ZM114.98 21.68C116.74 22.56 117.74 24.04 118.28 25.88C118.62 27.02 118.7 28.18 118.68 29.36C118.66 29.9 118.36 30.26 117.82 30.34C117.68 30.36 117.52 30.38 117.38 30.38C115.88 30.38 114.4 30.38 112.9 30.38C111.34 30.38 109.78 30.38 108.24 30.38C108 30.38 107.84 30.42 107.88 30.72C108.02 31.88 108.44 32.94 109.3 33.76C110.04 34.48 110.96 34.68 111.94 34.64C113.24 34.58 114.24 33.94 115.02 32.94C115.26 32.62 115.58 32.48 115.96 32.5C116.38 32.5 116.8 32.5 117.24 32.5C118.06 32.5 118.44 33.04 118.18 33.82C117.9 34.6 117.36 35.22 116.72 35.72C115.5 36.66 114.14 37.2 112.62 37.34C111.42 37.46 110.26 37.38 109.12 37C107.16 36.34 105.9 34.94 105.18 33.04C104.56 31.38 104.52 29.64 104.64 27.9C104.72 26.82 104.94 25.8 105.4 24.82C106.46 22.6 108.18 21.34 110.62 21.06C112.12 20.84 113.6 21 114.98 21.68ZM98.3401 15.7C99.0201 15.7 99.3801 16.06 99.3801 16.76C99.3801 18.02 99.3801 19.26 99.3801 20.5C99.3801 25.64 99.3801 30.78 99.3801 35.92C99.3801 36.24 99.3601 36.54 99.1201 36.78C98.9401 36.96 98.7201 37.06 98.4601 37.06C98.0601 37.06 97.6601 37.06 97.2401 37.06C96.5801 37.06 96.2201 36.7 96.2002 36.02C96.2002 35.92 96.2002 35.84 96.2002 35.74C96.1202 35.68 96.0801 35.74 96.0601 35.78C94.9601 36.84 93.6002 37.28 92.1002 37.36C90.7802 37.42 89.5001 37.24 88.3401 36.58C87.1201 35.88 86.3601 34.78 85.8401 33.52C85.3801 32.42 85.1801 31.26 85.1201 30.06C85.0601 28.76 85.0802 27.48 85.4002 26.22C85.7802 24.6 86.5001 23.16 87.8201 22.12C88.8401 21.32 90.0402 21.02 91.3002 20.98C93.0202 20.9 94.6201 21.32 95.9401 22.5C95.9801 22.52 96.0202 22.54 96.1002 22.6V21.8C96.1002 20.14 96.1002 18.48 96.1002 16.82C96.1002 16.04 96.4401 15.72 97.2201 15.72C97.6001 15.7 97.9601 15.7 98.3401 15.7ZM144.56 21.26C144.9 21.28 145.24 21.26 145.58 21.26C146.32 21.26 146.74 21.82 146.46 22.54C146.18 23.28 145.86 23.98 145.56 24.68C143.1 30.36 140.66 36.06 138.22 41.74C137.92 42.4 137.64 42.6 136.94 42.6C136.58 42.6 136.24 42.6 135.88 42.6C135.16 42.6 134.78 42.08 135 41.4C135.22 40.66 135.58 39.98 135.88 39.26C136.32 38.2 136.76 37.16 137.22 36.12C137.3 35.94 137.3 35.76 137.22 35.58C135.38 31.26 133.56 26.92 131.72 22.6C131.42 21.9 131.82 21.26 132.6 21.26C133 21.26 133.38 21.26 133.78 21.26C134.34 21.24 134.68 21.52 134.88 22.02C135.46 23.42 136.06 24.82 136.64 26.24C137.4 28.06 138.18 29.9 138.94 31.72C138.98 31.78 139 31.84 139.08 32C139.4 31.24 139.7 30.56 140 29.88C141.12 27.28 142.22 24.68 143.34 22.08C143.56 21.52 143.92 21.22 144.56 21.26Z" fill="#212145"/>
<path d="M0.160156 17C0.160156 7.61116 7.77132 0 17.1602 0H33.1602C42.549 0 50.1602 7.61116 50.1602 17V33C50.1602 42.3888 42.549 50 33.1602 50H17.1602C7.77132 50 0.160156 42.3888 0.160156 33V17Z" fill="#212145"/>
<path fill-rule="evenodd" clip-rule="evenodd" d="M14.5402 9.19999C16.0802 9.33999 17.5601 9.71999 18.9801 10.3C20.5001 10.92 21.8801 11.78 23.0401 12.98C23.6601 13.6 23.4601 14.64 22.6801 15C22.2201 15.22 21.7001 15.12 21.3001 14.72C20.7201 14.12 20.0601 13.64 19.3601 13.24C18.2601 12.62 17.0802 12.18 15.8402 11.92C14.9202 11.72 14.0002 11.62 13.0202 11.62C12.7602 11.6 12.4601 11.66 12.1801 11.58C11.6001 11.44 11.1801 10.9 11.2201 10.32C11.2601 9.63999 11.7401 9.17999 12.3801 9.13999C13.1001 9.07999 13.8202 9.11999 14.5402 9.19999ZM39.3801 9.19999C39.8601 9.41999 40.1801 9.97999 40.0801 10.5C39.9802 11.1 39.5401 11.5 38.9802 11.56C38.6602 11.6 38.3401 11.58 38.0201 11.6C36.8401 11.68 35.7001 11.86 34.5802 12.2C32.4401 12.84 30.5401 13.94 28.8202 15.34C27.8202 16.16 26.8801 17.04 26.0401 18.04C25.0201 19.26 24.2001 20.6 23.6001 22.08C23.3401 22.7 23.0801 23.34 22.8202 23.98C22.8001 24.02 22.8001 24.06 22.7601 24.06C22.7201 24.06 22.7001 24.02 22.6801 23.98L21.5202 22.06C20.8001 20.88 19.8801 19.88 18.8001 19.04C18.1201 18.5 17.4202 18.02 16.6202 17.68C15.8802 17.36 15.1001 17.14 14.2801 17.02C13.6601 16.92 13.0202 16.88 12.4002 16.88C11.7402 16.86 11.2001 16.28 11.2201 15.64C11.2201 14.96 11.7802 14.4 12.4402 14.4H12.6602C14.3201 14.44 15.9201 14.72 17.4601 15.34C18.4401 15.74 19.3201 16.3 20.1601 16.96C20.9401 17.56 21.6401 18.22 22.2801 18.96C22.3601 19.06 22.3801 18.98 22.4201 18.92C22.9402 18.06 23.5201 17.24 24.1601 16.46C25.1401 15.3 26.2401 14.26 27.4201 13.32C28.6201 12.36 29.8801 11.54 31.2601 10.88C32.7601 10.16 34.3201 9.63999 35.9601 9.35999C36.8401 9.21999 37.7201 9.11999 38.6201 9.11999C38.8801 9.07999 39.1402 9.07999 39.3801 9.19999ZM12.5402 19.48L12.8402 19.5C13.5402 19.56 14.2002 19.68 14.8601 19.92C15.9801 20.3 16.9801 20.92 17.9001 21.7C18.7801 22.46 19.5601 23.32 20.1801 24.3C20.7801 25.22 21.1801 26.22 21.5001 27.28C21.7601 28.1 21.9001 28.94 21.9601 29.8C22.0401 30.66 22.0801 31.52 22.1001 32.38C22.1401 33.32 22.1402 34.26 22.1402 35.32C22.1601 36.2 22.1202 37.2 22.1202 38.18C22.1202 38.84 22.1001 39.52 22.0801 40.18C22.0801 40.44 22.0801 40.7 22.0401 40.96C21.9802 41.5 21.4801 42.08 20.6801 42.02C20.1001 41.98 19.6001 41.42 19.6001 40.8C19.6201 39.32 19.6801 37.82 19.6801 36.34C19.6801 35.34 19.6801 34.34 19.6801 33.36C19.6801 32.48 19.6401 31.58 19.5801 30.68C19.5201 29.86 19.4402 29.04 19.2201 28.24C18.9802 27.38 18.6601 26.54 18.2001 25.78C17.7601 25.06 17.2001 24.44 16.6001 23.86C16.0201 23.32 15.4001 22.86 14.6801 22.52C14.0001 22.2 13.3001 22.02 12.5602 21.98C12.4002 21.98 12.2202 21.98 12.0602 21.94C11.4602 21.82 11.0602 21.3 11.0602 20.68C11.0602 20.1 11.5202 19.6 12.1002 19.5C12.2402 19.46 12.3802 19.46 12.5402 19.48ZM38.8201 14.32C39.2201 14.32 39.5801 14.46 39.8401 14.8C40.1401 15.2 40.2001 15.62 40.0001 16.08C39.8001 16.52 39.4401 16.78 38.9401 16.8C37.9601 16.84 37.0001 16.9 36.0601 17.14C34.2601 17.58 32.7201 18.46 31.3401 19.7C30.5401 20.42 29.8401 21.24 29.2201 22.1C28.8401 22.62 28.5601 23.2 28.3001 23.8C27.8201 24.86 27.4601 25.94 27.2401 27.08C27.1201 27.68 27.0601 28.28 27.0001 28.9C26.9201 29.9 26.8601 30.92 26.8201 31.92C26.8001 32.38 26.7802 32.84 26.7802 33.3C26.7802 33.74 26.7601 34.46 26.7601 35.3V36.74C26.7601 37.48 26.7601 38.22 26.7601 38.84V39.24C26.7601 39.3 26.7601 39.36 26.7601 39.42V39.92C26.7601 40.26 26.7601 40.52 26.7601 40.6C26.7401 41.1 26.6202 41.56 26.1802 41.86C25.7802 42.1 25.3801 42.12 24.9601 41.9C24.5601 41.68 24.3401 41.32 24.3202 40.86C24.3001 40.56 24.3001 40.06 24.3001 39.34V38.54C24.3001 37.9 24.3001 37.12 24.3202 36.24C24.3202 35.52 24.3202 34.8 24.3202 34.06C24.3202 33.34 24.3401 32.64 24.3601 31.92C24.4001 31.14 24.4201 30.38 24.4801 29.62C24.5601 28.32 24.6801 27.04 25.0001 25.78C25.4201 24.12 26.0401 22.52 26.9401 21.08C27.6401 19.94 28.5401 18.94 29.5001 18.02C30.3601 17.22 31.2801 16.52 32.3202 15.96C33.5602 15.28 34.8601 14.82 36.2401 14.56C37.0801 14.4 37.9401 14.32 38.8201 14.32Z" fill="url(#paint0_linear_3661_13988)"/>
</g>
<defs>
<linearGradient id="paint0_linear_3661_13988" x1="18.0506" y1="41.3158" x2="27.5259" y2="6.00465" gradientUnits="userSpaceOnUse">
<stop stop-color="#5184F4"/>
<stop offset="1" stop-color="#6F9BFF"/>
</linearGradient>
<clipPath id="clip0_3661_13988">
<rect width="146.4" height="50" fill="white" transform="translate(0.160156)"/>
</clipPath>
</defs>
</svg>
