<svg width="172" height="50" viewBox="0 0 172 50" fill="none" xmlns="http://www.w3.org/2000/svg">
<g clip-path="url(#clip0_3661_14130)">
<path fill-rule="evenodd" clip-rule="evenodd" d="M158.434 1.71308C180.382 2.02916 168.499 35.1545 162.257 41.2752C156.014 47.3926 126.8 54.1553 119.264 45.4303C111.731 36.702 104.78 15.6303 115.441 5.86816C126.105 -3.89726 136.487 1.4003 158.434 1.71308ZM141.855 10.3673H134.276C133.703 10.3673 133.39 10.9204 133.39 11.2793V14.5092C133.39 15.0459 133.703 15.2138 134.213 15.2138H137.153C137.361 15.2138 137.542 15.3521 137.542 15.6023V37.9153C137.542 38.6396 138.128 39.2257 138.855 39.2257H141.855C142.579 39.2257 143.169 38.6396 143.169 37.9153V11.6777C143.169 10.9566 142.579 10.3673 141.855 10.3673Z" fill="#0091FF"/>
<mask id="mask0_3661_14130" style="mask-type:luminance" maskUnits="userSpaceOnUse" x="0" y="1" width="105" height="49">
<path d="M0 1.19434H104.061V49.0998H0V1.19434Z" fill="#231F20"/>
</mask>
<g mask="url(#mask0_3661_14130)">
<path fill-rule="evenodd" clip-rule="evenodd" d="M102.475 1.61748H96.3911C95.5163 1.61748 94.8087 2.3251 94.8087 3.20339V18.4011C94.8087 19.2758 94.0975 19.987 93.2192 19.987H76.3218C75.44 19.987 74.7324 19.2758 74.7324 18.4011V3.20339C74.7324 2.3251 74.0212 1.61748 73.1465 1.61748H66.4117H59.9934C59.3177 1.61748 58.7168 2.04063 58.4963 2.67713L49.0129 29.5843C48.5115 31.0101 46.4918 30.9924 46.0117 29.5594L36.8803 2.27887C36.6599 1.62815 36.0554 1.19434 35.3726 1.19434H32.5102C31.8381 1.19434 31.2407 1.61748 31.0132 2.25042L21.3377 29.5558C20.8328 30.9817 18.8095 30.9604 18.3366 29.5238L9.53583 2.70913C9.32603 2.05841 8.71798 1.61748 8.02814 1.61748H1.5885C0.493295 1.61748 -0.271213 2.69491 0.0879283 3.7261L15.499 48.0356C15.723 48.6721 16.3204 49.1023 16.9996 49.1023H21.7324C22.4009 49.1023 22.9983 48.6792 23.2259 48.0533L32.2115 23.2051C32.72 21.8005 34.7113 21.8147 35.202 23.2264L43.7645 48.032C43.9849 48.6685 44.5894 49.1023 45.265 49.1023H50.0014C50.6664 49.1023 51.2602 48.6863 51.4913 48.0676L64.712 12.3597C64.8649 11.9472 65.48 12.061 65.48 12.5019V47.5129C65.48 48.3876 66.1877 49.1023 67.0624 49.1023H73.1465C74.0212 49.1023 74.7324 48.3876 74.7324 47.5129V29.5451C74.7324 28.6668 75.44 27.9592 76.3183 27.9592H93.2192C94.0975 27.9592 94.8087 28.6668 94.8087 29.5451V47.5129C94.8087 48.3876 95.5163 49.1023 96.3911 49.1023H102.475C103.35 49.1023 104.061 48.3876 104.061 47.5129V3.20339C104.061 2.3251 103.35 1.61748 102.475 1.61748Z" fill="#231F20"/>
</g>
</g>
<defs>
<clipPath id="clip0_3661_14130">
<rect width="171.93" height="50" fill="white"/>
</clipPath>
</defs>
</svg>
